<svg id="rmhc_twf" xmlns="http://www.w3.org/2000/svg" style="cursor: move; max-height: none;" width="100%" viewBox="0 0 25000 18610" preserveAspectRatio="xMidYMid meet"><g id="" fill="rgb(0,0,0)" style="transform: none;"><g style="transform: none;"><path id="pMro3tJ24" d="M 2705 15161 c -11 -4 -63 -16 -115 -25 -136 -24 -201 -37 -230 -46 -14 -4 -73 -4 -130 0 -493 37 -1028 43 -1415 16 -132 -10 -258 -21 -280 -26 -58 -14 -99 -12 -131 5 -36 19 -215 21 -247 3 -13 -7 -50 -11 -88 -9 l -66 3 2 -424 c 1 -253 6 -449 13 -488 6 -36 16 -265 21 -510 16 -709 40 -1172 66 -1285 7 -33 18 -116 24 -185 11 -126 34 -285 51 -350 44 -168 70 -971 41 -1255 -6 -60 -15 -162 -21 -227 -5 -64 -13 -124 -16 -133 -7 -17 -62 -48 -105 -58 -16 -4 -29 -16 -33 -29 -9 -36 -7 -147 3 -166 5 -9 41 -51 80 -92 64 -68 71 -79 71 -117 0 -57 19 -73 84 -73 51 0 86 -19 86 -46 1 -29 165 -204 476 -505 49 -47 130 -134 179 -192 80 -95 160 -166 250 -222 17 -10 71 -57 120 -105 113 -109 356 -323 412 -364 24 -16 43 -33 43 -38 0 -4 24 -25 54 -47 139 -103 462 -416 549 -533 28 -37 56 -68 63 -68 6 0 28 -20 49 -45 20 -25 58 -67 85 -93 47 -46 110 -150 110 -182 0 -9 -12 -32 -26 -51 -24 -32 -26 -38 -20 -117 9 -120 11 -122 106 -122 43 0 82 5 85 10 10 16 17 12 83 -45 58 -51 67 -55 112 -55 39 0 52 4 60 19 18 35 11 76 -24 131 -67 107 -78 130 -71 161 15 66 214 275 350 369 28 19 78 57 112 85 34 27 85 67 115 88 29 21 87 64 128 95 66 50 120 92 334 259 22 18 52 40 66 50 14 9 37 27 52 41 26 24 26 24 51 -20 41 -68 44 -83 62 -278 13 -148 23 -203 47 -275 16 -49 36 -100 44 -112 40 -64 147 -70 224 -14 45 33 45 33 51 -6 3 -21 11 -58 17 -83 6 -25 19 -81 28 -125 9 -44 23 -93 30 -110 22 -53 39 -148 39 -220 -1 -115 -16 -138 -252 -373 -188 -187 -213 -216 -257 -297 -49 -90 -49 -90 -49 -220 -1 -122 1 -133 26 -182 15 -28 35 -54 46 -58 47 -14 71 -45 71 -89 0 -48 17 -76 64 -105 69 -43 120 -51 327 -51 196 0 196 0 234 33 39 34 39 34 82 5 23 -16 45 -33 48 -39 17 -27 106 -59 164 -59 33 0 63 -4 66 -10 33 -54 404 100 482 200 7 8 26 40 43 71 26 49 30 67 30 135 0 43 5 140 11 217 11 139 11 139 -14 165 -14 15 -34 45 -44 67 -10 22 -42 84 -71 137 -60 110 -152 205 -263 272 -64 38 -80 49 -194 121 -88 56 -197 174 -232 251 -9 22 -25 48 -34 59 -10 11 -42 64 -73 118 -47 84 -57 110 -66 180 -7 45 -16 88 -22 95 -15 17 18 52 49 52 31 0 85 -23 102 -43 9 -11 29 -17 55 -17 34 0 51 7 84 36 38 32 42 40 42 80 0 41 -5 50 -62 109 -86 89 -139 195 -173 350 -15 66 -35 156 -45 200 -10 44 -24 109 -31 145 -7 36 -23 87 -36 113 -16 32 -28 80 -34 140 -5 51 -11 97 -13 102 -2 6 3 22 12 36 22 39 254 264 355 344 152 121 163 129 206 160 38 27 133 99 266 199 28 20 59 44 69 53 74 60 111 83 135 83 42 0 81 47 81 97 0 38 -4 44 -42 70 -31 21 -44 39 -55 73 -24 79 -73 457 -88 680 -7 97 -21 223 -36 323 -8 50 -8 72 0 80 16 16 14 123 -3 155 -11 20 -15 92 -19 287 -3 195 -9 281 -22 345 -14 65 -18 137 -19 300 -1 228 1 243 61 378 16 37 14 154 -7 312 -11 82 -10 115 5 248 15 129 17 199 12 442 -4 173 -11 299 -18 317 -7 17 -11 94 -10 203 1 96 -3 258 -9 360 -7 102 -15 247 -18 323 -7 138 -7 138 23 167 21 20 42 30 70 32 39 3 40 4 43 42 2 27 -6 57 -28 105 -18 36 -38 77 -44 91 -12 25 -12 25 -196 24 -102 -1 -232 -6 -290 -12 -58 -6 -161 -15 -230 -21 -69 -6 -152 -16 -184 -23 -62 -12 -184 -2 -496 40 -107 14 -239 17 -900 19 -426 1 -784 -2 -795 -6 z  m 1190 -241 c 132 -5 283 -13 335 -19 164 -17 283 -32 330 -42 25 -5 83 -14 130 -19 47 -5 108 -14 135 -19 28 -6 136 -10 241 -10 179 -1 192 0 209 19 12 13 22 17 29 11 6 -5 27 -11 46 -13 55 -5 60 -25 60 -253 0 -141 4 -205 12 -213 13 -13 26 -553 34 -1405 4 -507 4 -507 -23 -565 -26 -54 -27 -67 -35 -272 -4 -118 -11 -243 -14 -278 -4 -46 -1 -74 10 -103 9 -22 16 -59 16 -82 0 -24 7 -52 15 -63 10 -13 14 -46 15 -107 0 -49 5 -98 12 -110 10 -19 20 -290 18 -466 -1 -71 26 -174 63 -234 29 -48 29 -48 29 -257 0 -115 -3 -214 -6 -219 -3 -5 -2 -85 4 -177 8 -150 8 -170 -7 -186 -9 -10 -20 -18 -24 -18 -7 0 -49 -32 -259 -195 -21 -16 -64 -54 -97 -82 -155 -139 -326 -286 -403 -346 -205 -160 -183 -137 -280 -302 -100 -170 -279 -369 -428 -473 -34 -24 -62 -48 -62 -52 0 -5 -39 -42 -87 -82 -88 -73 -180 -156 -237 -214 -17 -17 -45 -41 -63 -53 -18 -12 -46 -44 -64 -71 -20 -31 -43 -53 -63 -60 -48 -17 -155 -94 -235 -170 -52 -49 -95 -84 -156 -126 -35 -23 -84 -65 -111 -94 -53 -57 -95 -83 -118 -74 -21 8 -46 49 -46 75 0 48 -205 349 -238 349 -6 0 -37 30 -69 67 -152 174 -400 407 -674 634 -24 20 -113 97 -198 170 -85 74 -170 147 -190 164 -113 94 -315 306 -411 431 -53 68 -116 131 -194 194 -52 42 -141 143 -177 201 -9 14 -63 73 -118 130 -56 57 -104 113 -107 125 -8 31 -26 325 -26 424 0 155 21 417 37 461 17 51 20 146 4 186 -6 15 -17 179 -24 363 -8 184 -19 362 -25 395 -6 33 -15 123 -20 200 -5 77 -13 181 -19 230 -6 50 -13 176 -16 280 -6 167 -22 420 -55 845 -5 69 -10 213 -11 320 -1 107 -5 222 -10 255 -5 33 -12 245 -15 470 -6 411 -6 411 34 429 34 16 45 16 77 6 23 -8 55 -10 84 -5 53 8 68 8 173 -1 62 -5 89 -2 140 14 52 16 107 21 323 28 374 13 654 11 691 -4 16 -7 75 -17 129 -23 55 -6 134 -14 175 -19 41 -5 186 -9 322 -9 257 -1 280 2 361 46 48 25 228 44 615 62 101 5 186 12 190 16 4 3 23 4 42 0 19 -3 143 -10 275 -15 z  m 835 -6365 c 0 -44 7 -84 30 -175 6 -25 17 -70 24 -100 13 -55 44 -118 77 -155 20 -23 49 -153 49 -220 0 -45 0 -45 -41 -45 -40 0 -149 -47 -244 -105 -22 -14 -46 -24 -53 -22 -26 4 -86 194 -101 315 -6 51 -23 123 -36 159 -37 97 -34 123 20 174 25 23 74 60 110 81 40 24 81 59 107 93 23 30 45 52 50 49 4 -3 8 -25 8 -49 z  m 399 -1864 c 42 -37 91 -81 109 -97 18 -16 72 -66 120 -111 48 -46 91 -83 96 -83 5 0 37 -26 72 -57 34 -32 74 -67 89 -78 49 -37 89 -183 80 -290 -8 -92 -44 -159 -109 -203 -44 -29 -55 -32 -125 -32 -94 0 -201 31 -223 63 -3 6 7 27 24 48 26 32 30 47 35 118 7 93 -4 129 -46 154 -38 22 -110 22 -137 -1 -12 -10 -33 -39 -48 -66 -15 -26 -40 -59 -57 -73 -17 -15 -44 -50 -60 -78 -37 -65 -67 -98 -108 -120 -43 -22 -80 -13 -135 33 -60 50 -156 172 -156 199 0 12 -5 33 -11 47 -15 33 3 79 43 107 16 12 40 39 54 61 27 43 64 88 105 128 14 14 67 66 118 115 51 50 101 107 112 127 10 20 23 40 29 43 13 8 40 72 40 96 0 11 3 19 7 19 3 0 40 -31 82 -69 z "></path><path id="pK3fo7wr5" d="M 2827 14425 c -32 -13 -67 -35 -77 -48 -12 -16 -33 -26 -58 -29 -51 -7 -181 -71 -213 -103 -13 -15 -35 -50 -49 -78 -22 -45 -31 -54 -68 -66 -48 -15 -144 -97 -168 -144 -15 -28 -32 -81 -55 -171 -5 -21 -24 -58 -42 -83 -18 -24 -42 -58 -54 -75 -13 -17 -23 -39 -23 -50 0 -10 -11 -51 -25 -90 -21 -60 -25 -89 -25 -188 0 -76 5 -135 16 -170 8 -30 22 -92 29 -138 8 -46 23 -97 34 -115 11 -18 35 -69 54 -114 35 -82 35 -82 2 -150 -18 -37 -45 -83 -59 -102 -14 -19 -26 -41 -26 -49 0 -9 -11 -29 -24 -46 -12 -17 -40 -62 -61 -101 -20 -38 -42 -73 -49 -77 -6 -4 -28 -8 -48 -8 -51 0 -98 -44 -139 -128 -18 -37 -43 -80 -56 -95 -13 -16 -26 -41 -30 -55 -3 -15 -19 -46 -35 -69 -15 -23 -37 -62 -47 -86 -20 -46 -55 -77 -115 -102 -38 -16 -80 -73 -135 -185 -17 -34 -39 -74 -50 -88 -10 -15 -28 -49 -39 -75 -12 -26 -30 -59 -41 -73 -11 -14 -25 -42 -32 -62 -6 -20 -18 -44 -25 -53 -16 -18 -94 -158 -137 -244 -16 -33 -39 -73 -51 -90 -12 -16 -31 -50 -41 -75 -11 -25 -31 -63 -45 -85 -15 -22 -35 -60 -45 -85 -10 -25 -25 -52 -32 -61 -23 -27 -16 -113 12 -154 46 -69 64 -77 235 -105 30 -5 70 -15 90 -23 19 -8 54 -20 77 -27 92 -28 191 -94 301 -201 152 -150 168 -159 268 -159 81 0 82 0 118 38 20 20 52 67 70 103 18 36 45 83 59 105 15 21 27 44 27 51 0 7 18 40 40 74 22 34 40 66 40 72 0 5 15 35 34 66 35 57 73 127 133 240 18 35 38 70 43 77 6 6 24 40 41 75 17 35 42 76 55 92 13 16 24 36 24 45 0 9 21 48 46 87 45 69 45 69 43 157 -1 82 0 90 30 136 17 27 31 54 31 60 0 7 6 12 14 12 12 0 96 131 96 149 0 4 11 29 24 57 25 49 25 49 25 3 1 -25 8 -67 17 -92 15 -43 15 -51 0 -87 -21 -54 -20 -126 4 -175 11 -22 19 -50 20 -62 0 -37 80 -101 170 -137 121 -48 150 -65 163 -98 10 -24 11 -43 4 -68 -18 -66 -3 -162 35 -232 19 -34 38 -79 42 -99 3 -21 17 -52 29 -70 26 -38 57 -112 57 -134 0 -8 13 -36 28 -62 16 -27 37 -73 47 -103 10 -30 29 -75 42 -100 14 -25 39 -81 58 -125 73 -178 97 -232 119 -270 13 -22 26 -53 30 -70 8 -36 62 -143 84 -167 11 -13 30 -18 71 -18 56 0 56 0 116 71 90 107 263 278 336 332 73 54 166 117 173 117 3 0 27 13 53 28 26 15 80 40 118 56 39 15 84 33 100 40 17 8 45 17 62 20 18 4 35 12 38 17 4 5 22 9 40 9 19 0 56 7 82 16 40 14 72 15 190 9 181 -9 183 -8 183 86 0 73 -14 114 -53 157 -12 12 -33 42 -47 66 -14 24 -51 81 -82 127 -87 127 -144 214 -173 261 -19 31 -168 253 -186 278 -10 14 -31 45 -46 70 -14 25 -36 56 -48 70 -13 14 -31 40 -40 59 -24 47 -93 134 -113 143 -10 4 -28 9 -42 12 -14 3 -37 17 -52 31 -31 29 -36 65 -13 105 10 17 14 58 14 130 1 136 -9 156 -164 338 -73 85 -122 157 -129 189 -4 17 -14 37 -22 44 -13 10 -13 15 0 34 8 12 17 43 21 68 4 26 15 57 25 70 25 32 57 97 65 134 3 18 11 35 16 38 5 4 9 13 9 22 0 9 6 24 14 32 8 9 20 54 26 101 6 46 14 88 16 92 3 4 16 3 30 -2 14 -6 45 -10 69 -10 119 0 175 67 175 207 -1 170 -63 259 -261 371 -75 42 -89 61 -98 125 -8 61 -30 100 -81 145 -38 32 -137 72 -181 72 -30 0 -49 19 -64 64 -9 26 -35 51 -119 109 -12 8 -22 33 -28 72 -5 33 -16 70 -24 83 -24 36 -104 82 -146 82 -36 0 -39 3 -78 75 -47 84 -75 106 -165 125 -33 7 -73 21 -88 32 -76 54 -240 65 -340 23 z  m 163 -178 c 0 -7 -4 -17 -9 -22 -25 -27 -71 -129 -71 -159 0 -18 -7 -39 -15 -46 -21 -17 -22 -272 -2 -289 8 -6 20 -30 27 -53 7 -24 18 -52 23 -63 6 -10 11 -62 11 -115 1 -82 5 -102 28 -146 16 -31 42 -61 67 -77 24 -16 43 -37 46 -52 3 -14 7 -36 10 -50 3 -13 23 -50 46 -82 45 -65 77 -81 166 -82 49 -1 54 -4 85 -42 45 -56 93 -79 166 -79 53 0 63 4 117 44 33 24 76 60 95 79 91 92 97 100 147 220 28 68 28 68 46 25 16 -37 19 -74 20 -273 2 -230 2 -230 -40 -312 -24 -44 -43 -86 -43 -91 0 -6 -12 -33 -26 -61 -40 -81 -56 -147 -57 -245 -2 -91 -2 -91 41 -157 23 -36 42 -71 42 -77 0 -6 19 -34 43 -61 86 -102 125 -157 132 -188 3 -18 11 -33 16 -33 15 0 50 -40 44 -50 -3 -5 -27 4 -53 20 -69 42 -215 80 -309 80 -80 0 -200 -20 -288 -47 -170 -53 -359 -189 -416 -299 -31 -62 -43 -105 -48 -185 -6 -77 -6 -77 -41 -60 -19 9 -45 31 -57 50 -22 32 -23 44 -23 210 -1 134 -4 182 -15 201 -8 14 -14 39 -15 56 0 19 -6 34 -15 38 -20 7 -45 66 -45 107 0 40 -50 159 -130 307 -15 29 -31 63 -34 75 -7 24 -61 87 -75 87 -10 0 -101 150 -101 167 0 5 -13 28 -28 49 -16 21 -41 64 -56 94 -15 30 -38 73 -51 95 -14 22 -25 50 -25 63 0 12 -13 40 -28 61 -16 22 -37 61 -46 88 -10 26 -29 75 -43 108 -22 52 -26 77 -29 190 -3 132 2 130 25 -6 10 -65 21 -88 69 -146 29 -37 40 -43 72 -43 54 0 70 29 70 122 0 65 -7 100 -42 203 -5 17 -9 51 -8 76 0 26 -6 65 -15 87 -17 41 -16 123 0 229 7 39 29 73 41 61 2 -3 9 -59 13 -124 13 -175 40 -365 56 -396 8 -14 15 -35 15 -46 0 -36 46 -62 108 -62 83 0 92 12 92 125 0 76 -3 97 -19 116 -13 17 -17 33 -13 65 3 33 -1 52 -24 90 -15 27 -31 51 -35 54 -4 3 -10 24 -14 48 -6 37 -4 47 14 63 30 29 31 139 0 168 -20 19 -20 19 4 42 14 13 27 33 30 44 3 11 5 -44 6 -122 1 -128 3 -146 26 -195 14 -29 25 -70 25 -90 0 -20 6 -49 14 -65 8 -15 19 -41 25 -56 10 -26 15 -28 59 -25 47 3 47 3 52 323 4 238 8 326 18 343 13 23 127 112 143 112 5 0 9 -6 9 -13 z  m 230 -126 c 16 -31 12 -133 -6 -160 -9 -13 -25 -55 -35 -94 -12 -48 -26 -77 -41 -89 -22 -17 -24 -17 -41 4 -15 18 -18 35 -14 92 2 39 10 87 17 106 56 143 94 188 120 141 z  m 250 -212 c 0 -16 -6 -43 -14 -61 -8 -18 -22 -53 -32 -78 -37 -94 -146 -247 -207 -291 -47 -34 -63 -36 -72 -8 -13 40 3 69 50 89 24 10 49 29 56 42 6 13 29 42 50 65 45 49 82 125 99 203 15 65 36 95 57 79 7 -6 13 -24 13 -40 z  m 157 -246 c -7 -38 -48 -132 -73 -168 -12 -16 -32 -55 -47 -85 -32 -71 -105 -161 -151 -188 -36 -21 -36 -21 -51 1 -8 12 -15 27 -15 34 0 7 38 54 84 105 101 112 186 218 186 231 0 6 11 25 25 43 14 18 25 37 25 43 0 6 5 11 11 11 7 0 9 -11 6 -27 z  m 143 -285 c -24 -57 -51 -112 -60 -123 -10 -11 -27 -38 -38 -61 -34 -68 -122 -135 -122 -94 0 6 21 34 48 64 56 64 84 105 113 166 12 25 25 52 30 60 5 8 19 36 31 62 14 28 27 43 32 38 6 -6 -8 -50 -34 -112 z  m 497 -240 c 29 -29 53 -56 53 -60 0 -23 -92 15 -112 46 -10 14 -10 66 -1 66 4 0 31 -23 60 -52 z  m -1917 -802 c 0 -4 13 -27 28 -50 15 -22 51 -89 80 -147 33 -67 59 -108 71 -112 16 -4 36 -55 25 -66 -2 -3 -17 5 -32 17 -61 50 -128 89 -294 174 -43 22 -78 41 -78 43 0 12 36 85 54 109 12 17 31 51 41 76 32 76 35 77 71 18 19 -29 34 -57 34 -62 z  m -272 -360 c 15 -8 61 -29 102 -47 41 -18 87 -42 102 -53 15 -12 52 -39 82 -61 30 -22 68 -61 86 -86 31 -46 31 -46 -11 -124 -24 -43 -51 -87 -61 -97 -9 -9 -20 -30 -24 -45 -3 -16 -10 -38 -16 -50 -11 -23 -11 -23 -52 10 -47 38 -110 79 -247 160 -91 54 -99 57 -163 57 -60 0 -70 -3 -91 -26 -18 -20 -25 -38 -25 -68 0 -64 24 -91 130 -144 147 -75 289 -180 327 -243 32 -52 32 -52 8 -83 -12 -17 -34 -53 -48 -81 -45 -91 -104 -200 -131 -239 -14 -21 -26 -47 -26 -56 0 -10 -8 -28 -19 -41 -26 -33 -61 -97 -61 -111 0 -6 -7 -19 -15 -28 -9 -9 -36 -57 -62 -106 -26 -49 -64 -120 -85 -159 -21 -38 -42 -80 -47 -92 -16 -36 -31 -37 -64 -5 -41 39 -137 113 -205 158 -57 38 -243 134 -259 134 -6 0 -39 9 -73 20 -34 11 -78 20 -96 20 -19 0 -34 3 -34 8 0 4 22 45 50 92 27 47 50 89 50 94 0 5 15 32 34 60 18 28 41 68 50 89 9 22 27 52 41 68 13 17 29 47 35 68 5 21 17 45 26 52 9 7 33 47 54 89 20 41 57 110 81 153 24 43 60 108 79 145 35 66 43 72 122 105 28 12 42 27 58 64 11 26 29 57 39 68 10 11 24 36 31 55 8 19 24 49 36 65 12 17 33 53 47 80 14 28 35 61 46 74 12 14 24 35 27 48 6 21 11 23 76 23 40 0 81 -6 96 -14 z  m 1835 -411 c 82 -25 160 -87 172 -137 7 -27 6 -28 -31 -28 -22 -1 -64 -9 -94 -20 -30 -11 -63 -19 -72 -20 -10 0 -32 -6 -50 -14 -18 -8 -58 -24 -88 -36 -109 -45 -272 -128 -327 -167 -17 -13 -36 -23 -41 -23 -5 0 -22 -11 -38 -25 -16 -14 -31 -25 -34 -24 -3 0 -14 12 -26 27 -23 30 -41 137 -24 147 5 3 10 17 10 30 0 37 54 115 108 155 53 40 141 100 147 100 2 0 16 5 32 12 90 38 268 50 356 23 z  m 107 -419 c 0 -2 -13 -6 -29 -8 -17 -2 -28 -1 -25 4 5 8 54 12 54 4 z  m -84 -25 c -3 -5 -17 -11 -32 -14 -29 -5 -20 9 11 16 11 3 21 5 23 6 2 0 1 -3 -2 -8 z  m -181 -76 c -60 -29 -111 -53 -112 -51 -4 4 104 64 129 71 13 4 32 14 43 21 11 8 26 14 35 13 8 0 -34 -24 -95 -54 z  m 705 -50 c 11 -13 7 -15 -30 -15 -57 0 -217 -28 -258 -46 -18 -8 -40 -14 -49 -14 -8 0 -64 -21 -124 -46 -168 -71 -325 -170 -502 -319 -55 -46 -68 -54 -73 -40 -7 18 -11 15 103 111 177 151 315 234 508 306 177 66 396 99 425 63 z  m -840 -20 c 0 -3 -2 -5 -5 -5 -3 0 -5 2 -5 5 0 3 2 5 5 5 3 0 5 -2 5 -5 z  m -31 -21 c -7 -8 -26 -22 -43 -31 -33 -16 -28 -9 18 25 34 26 44 28 25 6 z  m -79 -49 c 0 -3 -2 -5 -5 -5 -3 0 -5 2 -5 5 0 3 2 5 5 5 3 0 5 -2 5 -5 z  m -70 -50 c 0 -3 -2 -5 -5 -5 -3 0 -5 2 -5 5 0 3 2 5 5 5 3 0 5 -2 5 -5 z  m -40 -29 c 0 -3 -5 -8 -12 -12 -7 -4 -8 -3 -4 4 7 12 16 16 16 8 z  m -40 -30 c 0 -3 -5 -8 -12 -12 -7 -4 -8 -3 -4 4 7 12 16 16 16 8 z  m 1032 -37 c -23 -4 -48 -11 -54 -15 -6 -4 -28 -11 -47 -15 -36 -7 -77 -21 -136 -44 -57 -23 -220 -107 -239 -124 -10 -9 -42 -32 -71 -51 -67 -44 -186 -139 -246 -197 -36 -35 -48 -41 -56 -31 -9 10 8 29 69 83 163 141 273 216 418 286 142 69 143 69 250 88 25 5 56 13 70 19 14 6 39 11 55 10 24 0 22 -2 -13 -9 z  m 228 -209 c -74 -10 -157 -25 -185 -33 -27 -9 -67 -21 -88 -27 -152 -45 -435 -223 -585 -367 -97 -93 -112 -106 -112 -96 0 10 171 179 206 203 12 8 48 35 80 60 153 118 383 228 519 250 28 5 61 13 75 18 14 6 70 10 125 10 100 0 100 0 -35 -18 z  m 90 -230 c 18 -6 7 -8 -40 -8 -45 -1 -59 2 -45 8 25 11 52 11 85 0 z  m -139 -30 c -13 -11 -32 -20 -42 -20 -33 0 -238 -96 -317 -149 -30 -20 -69 -45 -86 -56 -75 -46 -133 -95 -266 -227 -77 -77 -100 -91 -100 -64 0 16 183 195 262 255 174 135 451 278 543 280 30 0 30 0 6 -19 z "></path><path id="pBtO0NVPf" d="M 3026 13051 c -28 -31 -30 -82 -6 -162 13 -41 31 -87 41 -104 9 -16 25 -66 34 -110 9 -44 22 -89 30 -101 8 -13 10 -26 4 -35 -17 -27 -10 -75 16 -103 27 -29 30 -36 17 -36 -13 0 -72 83 -119 168 -48 87 -128 248 -137 275 -4 13 -16 17 -53 17 -64 0 -90 -19 -98 -73 -10 -75 19 -219 54 -260 14 -18 40 -118 41 -160 0 -15 7 -42 15 -60 16 -32 16 -32 -15 3 -16 19 -30 41 -30 48 0 17 -77 159 -91 168 -5 3 -27 41 -49 85 -44 86 -58 96 -131 86 -59 -8 -79 -30 -79 -87 0 -36 5 -52 23 -68 13 -12 28 -22 34 -22 6 0 27 -33 47 -74 20 -41 43 -80 51 -86 8 -7 15 -18 15 -26 0 -7 9 -18 19 -23 10 -6 41 -41 67 -78 72 -102 115 -132 184 -132 78 0 85 12 85 142 l 0 112 65 -62 c 62 -61 66 -63 116 -63 57 0 69 9 93 69 19 44 19 203 2 281 -7 30 -17 87 -22 125 -17 138 -22 159 -40 189 -10 17 -19 42 -19 55 0 13 -10 45 -22 72 -23 49 -23 49 -74 49 -37 0 -56 -5 -68 -19 z "></path><path id="pmo8lnFfa" d="M 7457 13388 c -19 -15 -57 -99 -87 -191 -11 -34 -29 -78 -39 -97 -11 -19 -26 -57 -34 -85 -8 -27 -29 -80 -46 -117 -17 -36 -31 -71 -31 -76 0 -5 -16 -49 -36 -98 -20 -49 -47 -118 -60 -153 -13 -35 -33 -78 -44 -96 -26 -42 -28 -130 -4 -139 9 -4 71 -3 136 0 135 8 122 -2 153 109 10 33 21 65 25 70 12 16 50 127 50 147 0 10 4 26 9 36 33 62 81 193 81 222 0 9 6 24 13 34 13 17 15 16 34 -21 12 -22 30 -71 41 -109 26 -86 46 -140 66 -179 9 -16 16 -38 16 -47 0 -31 92 -257 107 -262 8 -4 66 -3 130 1 115 6 115 6 110 57 -5 50 -47 180 -81 247 -10 19 -27 63 -38 98 -11 36 -26 74 -33 85 -7 12 -30 68 -50 125 -19 58 -40 110 -46 117 -5 7 -18 41 -28 76 -10 35 -29 86 -43 113 -14 28 -31 67 -37 88 -7 20 -21 42 -31 47 -27 15 -183 13 -203 -2 z "></path><path id="pqHL2HNwK" d="M 8166 13384 c -14 -14 -16 -74 -16 -517 0 -299 4 -508 10 -517 12 -19 215 -27 236 -9 19 16 21 1028 2 1047 -19 19 -212 16 -232 -4 z "></path><path id="p67c7lVG1" d="M 8910 13386 c -25 -7 -67 -24 -94 -36 -64 -31 -190 -157 -207 -208 -7 -20 -18 -46 -25 -57 -44 -70 -59 -275 -28 -382 37 -126 96 -214 191 -284 97 -72 137 -83 313 -83 134 -1 162 2 200 19 77 34 131 72 176 125 36 42 44 59 44 91 0 37 -4 42 -67 89 -93 68 -117 68 -191 -5 -111 -109 -229 -108 -334 2 -101 105 -96 306 10 416 104 108 215 109 324 2 51 -50 60 -55 100 -55 33 0 57 10 106 40 62 40 62 41 62 88 0 42 -5 53 -45 99 -50 57 -108 94 -193 125 -73 26 -274 34 -342 14 z "></path><path id="p6ps3rmA6" d="M 10166 13380 c -26 -10 -56 -26 -65 -34 -10 -9 -27 -16 -39 -16 -14 0 -32 -16 -53 -47 -78 -112 -92 -235 -39 -340 36 -72 72 -113 98 -113 11 0 25 -7 32 -15 16 -19 -9 -61 -44 -75 -41 -15 -58 -133 -35 -240 9 -40 15 -51 35 -56 13 -3 34 -20 46 -36 46 -66 207 -105 318 -78 138 33 200 109 200 245 0 64 -5 85 -30 135 -16 32 -45 71 -65 86 -19 14 -35 31 -35 36 0 5 22 31 48 58 49 50 49 50 60 -3 7 -28 13 -63 14 -77 3 -25 3 -25 108 -25 105 0 105 0 108 40 6 60 -17 214 -39 264 -19 44 -19 44 42 110 34 36 73 75 86 87 20 17 24 29 21 65 -3 44 -3 44 -138 45 -137 2 -157 -2 -197 -39 -17 -15 -26 -17 -36 -8 -8 6 -40 20 -72 31 -80 28 -258 28 -329 0 z  m 251 -214 c 6 -6 -90 -116 -113 -129 -8 -4 -14 -15 -14 -22 0 -8 -4 -15 -9 -15 -10 0 -51 66 -51 82 0 22 52 79 83 92 30 12 89 7 104 -8 z  m -57 -587 c 0 -32 -25 -41 -53 -18 -27 20 -27 20 -5 50 22 30 22 30 40 7 10 -13 18 -30 18 -39 z "></path><path id="poQ5e6OIN" d="M 11638 13389 c -17 -9 -18 -39 -18 -402 0 -292 -3 -396 -12 -405 -8 -8 -54 -12 -143 -12 -89 0 -135 -4 -143 -12 -15 -15 -17 -204 -1 -213 6 -4 202 -7 436 -7 351 -1 427 2 434 13 12 19 11 162 -1 193 -9 25 -9 25 -157 28 l -148 3 -3 399 c -1 274 -6 403 -13 413 -14 16 -204 18 -231 2 z "></path><path id="pE8i86D6O" d="M 12133 13393 c -20 -7 -16 -86 8 -156 20 -61 33 -93 70 -173 10 -22 19 -46 19 -53 0 -11 27 -85 65 -176 7 -16 33 -86 59 -155 26 -69 59 -154 73 -190 14 -36 32 -81 38 -100 19 -52 44 -61 155 -54 52 3 100 11 106 18 13 14 48 103 68 175 9 30 22 64 29 75 8 12 28 64 46 116 18 52 38 104 45 115 7 11 23 54 36 95 13 41 27 82 31 90 19 36 40 90 59 153 12 38 30 83 41 100 23 39 25 90 3 111 -12 12 -38 16 -114 16 -117 0 -147 -9 -156 -47 -19 -84 -60 -179 -87 -201 -10 -9 -51 -12 -133 -10 -119 3 -119 3 -138 43 -39 82 -55 121 -66 158 -7 20 -20 42 -30 47 -19 10 -204 13 -227 3 z  m 542 -470 c -4 -10 -18 -53 -31 -95 -24 -81 -43 -124 -44 -99 0 8 -9 33 -19 55 -23 48 -51 126 -51 144 0 8 22 12 76 12 69 0 75 -2 69 -17 z "></path><path id="pfvqIESq" d="M 13340 13380 c -91 -24 -144 -46 -187 -77 -30 -22 -33 -29 -33 -74 0 -33 10 -70 29 -114 30 -65 30 -65 75 -65 32 0 60 9 97 31 86 50 157 73 231 73 61 0 71 -3 98 -29 30 -29 30 -29 7 -53 -29 -32 -100 -64 -217 -95 -130 -36 -189 -66 -243 -127 -53 -59 -63 -98 -54 -220 8 -123 64 -206 174 -260 62 -31 76 -34 188 -38 140 -5 211 6 309 49 124 54 121 51 124 91 4 46 -18 90 -74 145 -50 51 -89 56 -138 20 -50 -38 -125 -62 -194 -62 -59 0 -66 2 -88 30 -29 37 -29 36 -1 67 23 25 83 47 217 83 74 19 176 63 192 82 6 7 18 13 27 13 29 0 79 62 90 110 24 103 7 252 -34 306 -36 47 -153 108 -236 124 -88 17 -275 11 -359 -10 z "></path><path id="p1FtUUNOop" d="M9749.290004797049 11112.414645135986 C 9749.290004797049 11452.520123062156 9473.580039638391 11728.230088220814 9133.47456171222 11728.230088220814 8793.36908378605 11728.230088220814 8517.659118627393 11452.520123062156 8517.659118627393 11112.414645135986 8517.659118627393 10772.309167209815 8793.36908378605 10496.599202051158 9133.47456171222 10496.599202051158 9473.580039638391 10496.599202051158 9749.290004797049 10772.309167209815 9749.290004797049 11112.414645135986 Z M9000.0 11711.0  M9443.991983876074 11112.6056828514465 C 9443.991983876074 10941.239314426204 9305.072094211298 10802.319424761429 9133.705725786056 10802.319424761429 8962.339357360814 10802.319424761429 8823.419467696038 10941.239314426204 8823.419467696038 11112.6056828514465 8823.419467696038 11283.972051276689 8962.339357360814 11422.891940941464 9133.705725786056 11422.891940941464 9305.072094211298 11422.891940941464 9443.991983876074 11283.972051276689 9443.991983876074 11112.6056828514465 Z M9196.0 11436.0 "></path><path id="p1EvaWAnHX" d="M 10178 11710 c -26 -4 -57 -15 -70 -24 -12 -9 -34 -16 -47 -16 -34 0 -116 -87 -130 -137 -48 -167 -51 -212 -49 -613 l 3 -385 144 -7 c 86 -4 152 -3 162 3 17 8 18 37 21 372 3 386 0 357 52 467 6 13 29 37 51 52 40 28 43 29 124 12 42 -9 138 -90 182 -154 38 -55 38 -55 39 -392 0 -289 2 -339 15 -352 13 -13 37 -14 148 -9 73 3 134 8 137 10 2 2 3 195 1 429 -3 425 -3 425 33 457 35 33 35 33 35 127 0 118 -4 135 -35 149 -36 16 -179 14 -212 -3 -39 -21 -90 -77 -94 -104 -3 -24 -3 -24 -28 -2 -88 78 -198 119 -335 125 -55 2 -121 0 -147 -5 z "></path><path id="pBGAFh03w" d="M 11485 11710 c -114 -18 -254 -73 -337 -132 -23 -16 -28 -27 -28 -63 0 -29 8 -56 23 -78 12 -19 30 -49 39 -66 26 -47 75 -43 170 14 42 25 82 45 90 45 8 0 19 5 25 11 19 19 145 40 200 34 63 -8 140 -55 150 -93 15 -59 -45 -96 -257 -155 -223 -62 -257 -76 -327 -135 -23 -20 -49 -53 -58 -74 -19 -48 -20 -198 -2 -259 17 -54 80 -139 127 -171 146 -99 408 -114 610 -36 68 26 139 68 150 87 22 41 12 95 -28 152 -34 49 -41 54 -80 57 -34 3 -54 -3 -93 -28 -71 -44 -145 -70 -214 -76 -52 -5 -67 -2 -115 23 -62 31 -80 64 -64 111 12 37 74 66 218 102 237 60 319 98 384 178 45 57 52 81 52 182 0 187 -74 290 -250 350 -75 25 -281 36 -385 20 z "></path><path id="p1316A5G1g" d="M 12705 11714 c -11 -2 -45 -9 -75 -15 -69 -14 -193 -77 -245 -125 -62 -56 -143 -189 -155 -254 -5 -30 -15 -77 -20 -103 -15 -72 -12 -140 10 -256 16 -85 28 -117 65 -180 58 -98 122 -160 212 -206 88 -45 152 -62 258 -71 223 -18 427 65 544 222 51 68 57 79 82 156 23 71 38 302 20 327 -8 12 -78 14 -426 13 -229 0 -423 2 -430 4 -34 14 60 159 130 200 23 13 65 31 92 39 44 13 56 13 109 -1 56 -14 164 -78 164 -96 0 -5 11 -20 25 -33 28 -29 66 -32 134 -10 25 8 66 21 91 29 43 13 45 16 48 54 3 33 -3 48 -37 93 -69 93 -129 135 -257 185 -58 22 -89 26 -194 29 -69 2 -134 2 -145 -1 z  m 385 -749 c -36 -94 -95 -157 -186 -195 -81 -35 -167 -23 -249 34 -58 40 -124 129 -125 169 0 16 20 17 285 17 285 0 285 0 275 -25 z "></path><path id="pcn2upxIp" d="M 17075 11714 c -118 -20 -225 -97 -281 -204 -27 -51 -28 -63 -29 -175 0 -120 0 -120 41 -180 53 -76 87 -107 149 -138 102 -51 150 -59 342 -54 98 2 188 7 201 11 20 7 22 5 22 -22 0 -42 -32 -112 -66 -144 -40 -37 -117 -68 -170 -68 -57 0 -149 31 -242 81 -84 45 -120 49 -149 17 -48 -54 -69 -171 -37 -203 27 -27 154 -82 244 -107 71 -19 108 -22 220 -22 91 1 151 7 185 17 176 55 228 87 284 182 51 84 60 152 61 440 0 232 2 252 20 275 17 22 20 41 20 147 0 144 1 143 -109 143 -70 0 -161 -29 -161 -51 0 -5 -13 -22 -28 -39 -28 -29 -28 -29 -81 6 -84 57 -178 85 -301 89 -58 2 -118 1 -135 -1 z  m 293 -271 c 45 -19 74 -39 107 -76 44 -48 46 -52 43 -106 -3 -50 -6 -57 -30 -69 -50 -24 -191 -37 -251 -23 -98 22 -177 89 -177 150 0 80 120 168 210 154 19 -3 63 -17 98 -30 z "></path><path id="p1GkGfnMwH" d="M 19685 11711 c -65 -10 -99 -24 -147 -62 -72 -58 -72 -58 -76 -486 -4 -435 7 -390 -92 -395 -45 -3 -45 -3 -48 -115 -3 -129 2 -137 86 -132 47 3 47 3 53 -176 3 -99 6 -181 7 -182 1 -2 64 -3 140 -3 94 0 142 4 150 12 8 8 12 63 12 180 0 127 3 168 13 170 6 1 53 2 103 2 122 1 124 3 124 125 0 62 -4 101 -12 109 -8 8 -46 12 -104 12 -51 0 -99 3 -108 6 -14 5 -16 41 -16 301 0 295 0 295 29 324 32 32 62 36 101 14 14 -8 51 -14 82 -15 55 0 58 1 64 28 3 15 14 49 25 76 24 62 24 111 0 135 -48 48 -270 89 -386 72 z "></path><path id="p6R6yPFxj" d="M 21134 11711 c -213 -35 -382 -179 -443 -381 -37 -122 -42 -168 -31 -279 18 -173 59 -268 162 -373 137 -142 311 -195 552 -170 147 16 223 49 306 133 73 74 143 177 159 234 19 62 27 330 11 340 -7 4 -201 8 -431 9 -229 1 -420 4 -424 8 -11 10 43 106 83 147 52 53 84 72 149 87 106 25 228 -17 293 -101 31 -39 40 -44 75 -45 22 0 74 10 115 23 75 23 75 23 78 66 4 53 -20 93 -108 177 -105 100 -167 122 -360 129 -74 2 -158 0 -186 -4 z  m 436 -741 c 0 -52 -78 -149 -149 -184 -49 -25 -127 -41 -175 -37 -75 7 -194 90 -232 163 -44 85 -68 78 261 78 291 0 295 0 295 -20 z "></path><path id="pVANst5dQ" d="M 22295 11709 c -111 -15 -290 -84 -342 -132 -36 -33 -31 -96 12 -167 53 -87 80 -91 193 -26 199 115 379 122 449 17 21 -31 21 -35 8 -62 -9 -16 -24 -33 -34 -39 -27 -14 -144 -54 -221 -75 -227 -62 -292 -93 -350 -166 -33 -41 -39 -59 -45 -115 -15 -136 32 -267 120 -339 172 -141 540 -135 758 12 34 24 37 29 36 72 0 37 -9 57 -42 106 -37 53 -47 60 -79 63 -29 2 -49 -5 -95 -36 -68 -46 -172 -82 -234 -82 -76 0 -169 61 -169 111 0 64 55 89 385 170 58 15 175 76 212 111 54 52 63 83 63 211 0 135 -9 165 -67 234 -99 118 -305 166 -558 132 z "></path><path id="pnICWGr3S" d="M 14591 11689 c -215 -56 -377 -198 -488 -427 -47 -97 -47 -97 -51 -345 -3 -248 -3 -248 44 -355 93 -210 264 -362 469 -418 33 -9 118 -18 191 -21 257 -11 409 45 549 200 80 88 95 112 95 149 0 29 -7 40 -47 72 -91 70 -122 86 -168 86 -42 0 -47 -3 -72 -43 -86 -134 -261 -209 -405 -172 -126 32 -223 111 -293 240 -53 96 -67 153 -66 265 1 105 14 154 69 252 73 130 190 221 322 249 122 26 324 -70 381 -182 10 -21 28 -43 38 -49 30 -16 76 -12 102 8 13 10 51 34 84 52 71 40 75 44 75 90 0 34 -5 45 -64 129 -62 89 -221 181 -378 220 -115 28 -281 28 -387 0 z "></path><path id="pH7FbkPyJ" d="M 7078 11689 c -17 -9 -18 -57 -18 -779 0 -722 1 -770 18 -779 20 -11 252 -9 270 2 9 6 12 79 12 306 0 218 3 300 12 309 17 17 649 17 666 0 9 -9 12 -91 12 -309 0 -227 3 -300 13 -306 18 -11 249 -13 270 -2 16 9 17 56 17 772 0 419 -4 768 -8 775 -7 9 -43 12 -148 10 l -139 -3 -3 -309 c -1 -208 -6 -314 -13 -323 -9 -10 -78 -13 -339 -13 -290 0 -329 2 -334 16 -3 9 -6 153 -6 320 0 235 -3 306 -12 308 -33 10 -255 14 -270 5 z "></path><path id="phDDHtSHJ" d="M 15571 11676 c -8 -10 -10 -226 -9 -797 l 3 -784 139 -3 c 93 -2 143 1 152 9 11 9 14 63 14 276 0 265 0 265 45 229 121 -100 344 -134 497 -76 83 31 148 103 179 200 24 75 24 77 24 515 l 0 440 -134 3 c -86 2 -138 -1 -145 -8 -7 -7 -13 -133 -16 -373 -5 -362 -5 -362 -33 -420 -24 -48 -37 -62 -79 -83 -37 -19 -58 -23 -81 -18 -83 17 -195 103 -223 170 -8 18 -18 35 -24 39 -6 4 -10 122 -10 331 0 205 -4 332 -10 345 -10 17 -22 19 -144 19 -100 0 -136 -3 -145 -14 z "></path><path id="p12N9fy7bw" d="M 18071 11671 c -14 -25 -15 -1109 -1 -1131 7 -11 35 -15 121 -17 61 -1 120 2 130 8 15 8 19 21 19 69 0 60 0 60 57 13 79 -64 143 -91 235 -99 108 -9 108 -10 108 141 0 86 -4 125 -12 132 -7 6 -38 13 -68 16 -66 8 -168 56 -223 106 -71 64 -71 66 -77 441 l -5 335 -137 3 c -127 2 -138 1 -147 -17 z "></path><path id="p14ADA2AHn" d="M 18880 11671 c -13 -26 -14 -1110 0 -1131 7 -12 34 -15 126 -17 185 -2 164 -76 164 576 0 308 -3 566 -6 575 -5 14 -27 16 -140 16 -122 0 -134 -2 -144 -19 z "></path><path id="paYF9iMam" d="M 20215 11679 c -9 -14 -9 -1125 0 -1139 4 -6 59 -10 145 -10 116 0 139 2 144 16 3 9 6 264 6 568 0 416 -3 555 -12 564 -16 16 -274 17 -283 1 z "></path><path id="pv9u3HODk" d="M 18900 10402 c -27 -9 -30 -25 -30 -158 0 -100 3 -134 14 -143 9 -8 57 -11 147 -9 l 134 3 3 148 c 3 147 2 147 -21 156 -25 10 -222 12 -247 3 z "></path><path id="phmTwGwm5" d="M 20230 10403 c -8 -4 -18 -10 -21 -16 -10 -15 -8 -260 3 -279 8 -16 25 -18 141 -18 90 0 137 4 145 12 14 14 17 265 3 287 -7 11 -38 15 -133 17 -68 1 -130 0 -138 -3 z "></path><path id="pXQHDIGP" d="M9560.542268497584 8998.4553703269394 C 9560.542268497584 9338.869496305784 9284.582094655525 9614.829670147842 8944.16796867668 9614.829670147842 8603.753842697835 9614.829670147842 8327.793668855777 9338.869496305784 8327.793668855777 8998.4553703269394 8327.793668855777 8658.0412443480946 8603.753842697835 8382.0810705060367 8944.16796867668 8382.0810705060367 9284.582094655525 8382.0810705060367 9560.542268497584 8658.0412443480946 9560.542268497584 8998.4553703269394 Z M8750.0 9586.0  M9252.097016251675 9000.1805917287766 C 9252.097016251675 8830.0721823435583 9114.196903878377 8692.17206997026 8944.088494493159 8692.17206997026 8773.98008510794 8692.17206997026 8636.079972734642 8830.0721823435583 8636.079972734642 9000.1805917287766 8636.079972734642 9170.289001113995 8773.98008510794 9308.189113487293 8944.088494493159 9308.189113487293 9114.196903878377 9308.189113487293 9252.097016251675 9170.289001113995 9252.097016251675 9000.1805917287766 Z M9035.0 9310.0 "></path><path id="p1Dyr9lJQD" d="M 11155 9587 c -97 -32 -198 -128 -230 -219 -20 -58 -20 -221 0 -278 36 -103 139 -187 277 -227 112 -32 339 -31 444 2 19 6 20 4 14 -42 -8 -62 -31 -104 -77 -142 -92 -76 -243 -65 -402 29 -43 25 -63 30 -99 28 -43 -3 -46 -5 -73 -58 -31 -59 -39 -139 -16 -158 28 -23 176 -90 237 -107 50 -14 102 -18 225 -18 147 0 166 2 238 27 90 30 159 83 207 157 62 95 64 108 68 422 4 283 4 287 25 299 35 18 37 26 37 149 0 96 -3 119 -16 130 -11 9 -47 14 -115 14 -113 0 -140 -13 -174 -82 -20 -40 -20 -40 -60 -10 -22 16 -69 44 -105 61 -63 30 -70 31 -215 33 -103 2 -163 -1 -190 -10 z  m 339 -248 c 70 -26 152 -98 167 -147 18 -62 9 -95 -31 -114 -52 -25 -164 -37 -235 -26 -119 18 -210 108 -185 183 12 37 49 78 95 106 40 25 120 24 189 -2 z "></path><path id="pFXTQVA4f" d="M 12361 9588 c -18 -5 -49 -21 -68 -36 -91 -73 -93 -89 -93 -889 0 -588 2 -663 16 -677 12 -13 40 -16 134 -16 65 0 125 3 134 6 14 6 16 70 16 623 0 583 1 618 19 658 11 23 28 46 38 51 11 6 53 8 100 5 82 -6 82 -6 88 23 3 16 10 49 16 74 20 80 21 89 15 113 -11 47 -129 78 -291 76 -49 0 -105 -5 -124 -11 z "></path><path id="pap5pD7gb" d="M 13184 9591 c -17 -4 -64 -25 -104 -47 -107 -57 -166 -123 -246 -275 -51 -97 -54 -428 -4 -544 54 -125 159 -239 269 -292 76 -37 76 -37 221 -37 136 0 149 2 203 27 33 15 81 45 108 68 49 41 49 41 49 -228 0 -196 3 -272 12 -281 14 -14 275 -17 297 -3 12 8 14 109 12 644 -2 635 -2 635 27 668 27 32 29 40 36 151 5 97 3 119 -9 132 -23 22 -77 30 -163 22 -107 -10 -172 -53 -172 -116 0 -25 0 -25 -18 -4 -28 34 -123 91 -181 108 -58 17 -276 21 -337 7 z  M13708.569618128899 8999.9579722232975 C 13708.569618128899 8828.552173649217 13569.617764012894 8689.600319533212 13398.211965438813 8689.600319533212 13226.806166864733 8689.600319533212 13087.854312748728 8828.552173649217 13087.854312748728 8999.9579722232975 13087.854312748728 9171.363770797378 13226.806166864733 9310.315624913383 13398.211965438813 9310.315624913383 13569.617764012894 9310.315624913383 13708.569618128899 9171.363770797378 13708.569618128899 8999.9579722232975 Z M13480.0 9317.0 "></path><path id="pIbXKH2Xx" d="M 16975 9590 c -104 -22 -256 -119 -305 -193 -11 -18 -31 -46 -44 -64 -13 -18 -36 -72 -52 -120 -25 -78 -28 -103 -28 -218 0 -113 3 -141 27 -215 15 -47 36 -98 47 -115 78 -116 138 -169 248 -222 88 -42 211 -57 367 -47 155 11 284 71 362 169 15 19 33 35 40 35 21 0 43 43 43 85 0 47 -13 65 -49 65 -15 0 -57 12 -96 26 -123 46 -162 44 -192 -7 -23 -38 -94 -84 -155 -100 -42 -12 -55 -11 -104 6 -115 39 -195 134 -225 268 -14 65 -4 112 44 214 40 85 134 159 223 176 66 13 186 -46 225 -109 19 -31 25 -34 70 -34 28 0 87 11 132 25 45 14 93 29 107 33 21 6 26 15 28 49 3 45 -20 103 -41 103 -7 0 -29 16 -48 36 -44 46 -129 104 -199 134 -50 22 -71 24 -220 26 -91 2 -183 -1 -205 -6 z "></path><path id="p32IeXxNK" d="M20500.330603872633 8998.8885048610678 C 20500.330603872633 9339.0213553180743 20224.598448893426 9614.7535102972815 19884.465598436418 9614.7535102972815 19544.33274797941 9614.7535102972815 19268.600593000203 9339.0213553180743 19268.600593000203 8998.8885048610678 19268.600593000203 8658.7556544040613 19544.33274797941 8383.023499424854 19884.465598436418 8383.023499424854 20224.598448893426 8383.023499424854 20500.330603872633 8658.7556544040613 20500.330603872633 8998.8885048610678 Z M19701.0 9590.0  M20194.904659507753 8999.274813264817 C 20194.904659507753 8828.5913904554154 20056.53840665323 8690.2251376008935 19885.85498384383 8690.2251376008935 19715.17156103443 8690.2251376008935 19576.805308179908 8828.5913904554154 19576.805308179908 8999.274813264817 19576.805308179908 9169.958236074219 19715.17156103443 9308.3244889287407 19885.85498384383 9308.3244889287407 20056.53840665323 9308.3244889287407 20194.904659507753 9169.958236074219 20194.904659507753 8999.274813264817 Z M19984.0 9306.0 "></path><path id="pmotW9fRg" d="M 22090 9586 c -101 -40 -186 -117 -217 -198 -20 -55 -24 -244 -5 -306 25 -82 129 -170 252 -213 105 -36 348 -38 468 -3 19 5 22 3 22 -20 0 -38 -25 -93 -65 -142 -80 -98 -247 -97 -415 2 -50 29 -68 35 -107 32 -49 -3 -50 -4 -83 -80 -42 -99 -25 -134 96 -192 121 -57 181 -69 354 -69 161 -1 228 11 310 53 59 31 133 111 170 185 35 70 35 70 40 363 5 294 5 294 33 314 27 20 27 20 27 138 0 145 0 145 -136 145 -104 -1 -128 -11 -171 -75 -25 -38 -27 -40 -47 -25 -46 33 -110 69 -149 83 -58 22 -327 27 -377 8 z  m 310 -236 c 60 -16 105 -44 163 -103 47 -49 48 -51 45 -105 -3 -55 -3 -55 -48 -69 -183 -55 -349 -17 -402 93 -22 45 -22 45 2 90 14 25 40 55 59 66 44 27 102 48 121 43 8 -2 35 -9 60 -15 z "></path><path id="p64nx7tVj" d="M 23316 9593 c -54 -8 -116 -60 -145 -122 -26 -56 -26 -56 -29 -765 -2 -522 0 -712 9 -722 18 -21 262 -20 283 2 14 14 16 86 16 643 0 627 0 627 31 657 29 27 35 29 112 29 82 0 82 0 99 65 9 36 17 86 17 112 1 41 -3 50 -26 65 -50 33 -253 53 -367 36 z "></path><path id="p9hxEQaUE" d="M 24129 9591 c -57 -12 -170 -78 -227 -134 -61 -60 -115 -150 -144 -240 -28 -88 -30 -332 -5 -432 38 -144 153 -287 282 -349 55 -27 88 -35 155 -41 170 -13 306 22 393 103 27 26 27 26 27 -241 0 -256 1 -267 20 -277 12 -6 71 -9 147 -8 l 128 3 5 653 c 5 634 6 654 24 664 11 6 30 22 43 36 20 22 22 34 22 128 0 101 -1 105 -26 121 -33 22 -194 24 -233 4 -44 -24 -70 -53 -76 -89 -7 -34 -7 -34 -23 -15 -19 24 -90 71 -146 97 -32 16 -68 20 -185 22 -80 2 -161 -1 -181 -5 z  M24648.895362433414 9001.541025637331 C 24648.895362433414 8830.7452230578206 24510.43800777515 8692.2878683995577 24339.64220519564 8692.2878683995577 24168.84640261613 8692.2878683995577 24030.389047957866 8830.7452230578206 24030.389047957866 9001.541025637331 24030.389047957866 9172.3368282168417 24168.84640261613 9310.7941828751045 24339.64220519564 9310.7941828751045 24510.43800777515 9310.7941828751045 24648.895362433414 9172.3368282168417 24648.895362433414 9001.541025637331 Z M24422.0 9314.0 "></path><path id="pY0DHlHwc" d="M 7062 9568 c -4 -13 -5 -367 -2 -788 l 5 -765 355 -3 c 448 -4 486 2 616 89 87 59 182 211 204 328 33 178 -23 373 -139 485 -33 31 -63 56 -68 56 -4 0 -16 7 -26 14 -17 13 -17 17 13 73 17 32 41 73 53 90 12 18 40 62 62 99 22 36 55 89 74 117 18 29 44 71 57 94 28 49 32 118 8 127 -9 3 -78 6 -155 6 -152 0 -152 0 -191 -66 -10 -16 -36 -58 -59 -94 -23 -36 -56 -90 -74 -120 -17 -30 -46 -75 -63 -99 -18 -24 -32 -48 -32 -54 0 -5 -16 -30 -36 -53 -35 -44 -35 -44 -158 -44 -81 0 -126 4 -134 12 -9 9 -12 80 -12 259 0 216 -2 248 -16 253 -9 3 -74 6 -145 6 -125 0 -130 -1 -137 -22 z  m 745 -814 c 49 -28 86 -81 114 -161 17 -49 17 -58 4 -97 -24 -69 -76 -142 -125 -173 -45 -28 -47 -28 -228 -31 -132 -3 -187 0 -198 8 -11 10 -14 52 -14 230 0 120 3 225 6 234 5 14 33 16 202 16 191 0 196 -1 239 -26 z "></path><path id="p4IbneumG" d="M 9718 9579 c -17 -9 -18 -48 -18 -577 0 -429 3 -571 12 -580 8 -8 53 -12 135 -12 139 0 143 2 143 84 0 45 0 45 25 21 13 -14 34 -25 46 -25 13 0 32 -9 44 -20 12 -11 55 -32 96 -47 65 -23 90 -26 199 -27 155 -1 201 14 261 82 91 103 97 144 100 675 2 354 0 420 -12 428 -20 12 -246 11 -270 -1 -18 -10 -19 -25 -19 -361 0 -295 -3 -360 -16 -407 -22 -74 -44 -104 -93 -127 -39 -17 -43 -17 -86 0 -26 9 -66 32 -89 50 -24 18 -52 35 -62 37 -11 1 -40 35 -66 73 -47 70 -47 70 -48 401 0 293 -2 333 -16 338 -26 10 -248 6 -266 -5 z "></path><path id="pmO0mos1E" d="M 14813 9583 c -10 -4 -13 -168 -13 -773 0 -423 3 -775 6 -784 5 -14 28 -16 153 -16 171 0 165 -3 220 110 18 35 36 69 41 75 7 9 31 52 126 235 85 161 114 213 126 228 8 10 23 37 34 62 10 25 33 67 51 94 32 50 32 50 45 20 7 -16 31 -60 53 -99 78 -136 86 -151 120 -222 20 -40 39 -74 44 -78 6 -3 28 -43 51 -88 23 -45 59 -113 80 -152 21 -38 48 -92 60 -118 13 -26 31 -52 41 -57 10 -6 81 -10 158 -10 128 0 141 2 151 19 15 30 14 1533 -2 1549 -15 15 -251 17 -279 2 -18 -10 -19 -26 -19 -473 0 -459 -1 -462 -20 -437 -11 14 -25 39 -31 55 -13 30 -73 141 -134 245 -18 30 -58 104 -90 165 -68 130 -84 156 -104 173 -16 13 -178 17 -197 4 -7 -4 -25 -34 -41 -67 -17 -33 -51 -98 -78 -145 -26 -47 -66 -119 -87 -160 -22 -41 -45 -82 -53 -90 -7 -8 -22 -35 -33 -60 -12 -25 -37 -74 -57 -110 -35 -65 -35 -65 -35 411 0 356 -3 478 -12 487 -12 12 -248 17 -275 5 z "></path><path id="pesuswIPu" d="M 17863 9584 c -18 -8 -19 -1544 -1 -1562 9 -9 93 -12 317 -12 397 0 492 14 643 91 134 69 266 223 303 357 9 31 24 77 32 102 12 32 18 94 21 210 4 160 3 169 -27 283 -34 129 -45 154 -102 237 -96 141 -216 221 -414 276 -49 13 -122 17 -410 20 -192 2 -356 1 -362 -2 z  m 669 -298 c 201 -65 320 -231 334 -466 6 -90 4 -100 -29 -197 -63 -184 -183 -291 -361 -323 -84 -14 -299 -13 -314 2 -18 18 -17 994 1 1002 25 12 322 -2 369 -18 z "></path><path id="pvIJQlc3R" d="M 20645 9578 c -3 -7 -4 -272 -3 -588 l 3 -575 134 -3 c 101 -2 136 1 143 10 4 7 8 35 8 62 0 48 0 48 23 32 112 -82 187 -110 314 -120 221 -17 339 20 376 119 54 144 57 170 57 626 0 317 -3 428 -12 437 -17 17 -228 16 -251 0 -15 -12 -17 -53 -19 -398 -3 -428 -4 -434 -71 -465 -17 -9 -43 -22 -57 -30 -32 -19 -57 -19 -110 0 -63 22 -137 81 -186 149 -44 60 -44 60 -44 396 0 248 -3 339 -12 348 -17 17 -287 17 -293 0 z "></path></g></g><g id="l4xCBpYpCfgPrWnjLS59zo2" fill="rgb(255,255,255,0)" style="transform: none;"><g style="transform: none;"><path id="p3yVKUnDQ" d="M 0 17813 c 0 -2168 3 -2784 12 -2775 15 15 57 15 94 2 21 -9 35 -6 66 10 52 27 153 27 212 1 36 -17 51 -18 116 -10 41 5 81 11 90 14 8 2 121 12 250 21 386 27 839 21 1368 -17 91 -6 155 -7 175 -1 18 5 57 15 87 20 30 6 105 21 165 34 109 23 116 23 860 23 644 0 768 -3 875 -17 355 -47 487 -56 565 -38 22 5 99 14 170 20 72 7 177 16 235 22 58 5 175 11 260 11 154 2 154 2 166 -23 6 -14 26 -55 44 -92 17 -37 29 -71 26 -77 -4 -6 -20 -8 -36 -5 -23 5 -35 0 -69 -32 -46 -44 -45 20 -10 -574 6 -113 9 -267 6 -343 -5 -104 -2 -149 8 -185 10 -33 17 -128 21 -312 6 -222 4 -288 -11 -405 -18 -144 -16 -336 5 -391 14 -37 12 -131 -4 -167 -59 -136 -61 -147 -61 -402 1 -196 4 -258 20 -335 16 -77 20 -143 21 -346 1 -209 4 -256 18 -282 21 -40 20 -73 -1 -110 -16 -27 -16 -36 -4 -79 14 -53 26 -146 41 -328 26 -313 69 -645 93 -725 11 -34 24 -52 55 -73 23 -16 42 -33 42 -40 0 -22 -54 -67 -81 -67 -24 0 -61 -23 -135 -83 -10 -9 -41 -33 -69 -53 -133 -100 -228 -172 -266 -199 -43 -31 -54 -39 -206 -160 -103 -83 -333 -305 -358 -347 -13 -23 -16 -41 -10 -81 3 -29 10 -87 15 -129 5 -45 19 -96 33 -125 13 -26 29 -77 36 -113 7 -36 21 -101 31 -145 10 -44 30 -134 45 -200 34 -155 87 -261 173 -350 34 -35 62 -71 62 -79 0 -16 -77 -86 -95 -86 -7 0 -20 9 -30 20 -23 25 -104 50 -146 45 -18 -3 -42 -13 -53 -23 -12 -11 -29 -22 -38 -25 -26 -9 -22 -29 11 -57 26 -22 31 -35 41 -107 9 -70 19 -96 66 -180 31 -54 63 -107 73 -118 9 -11 25 -37 34 -59 35 -77 144 -195 232 -251 114 -72 130 -83 194 -121 111 -67 203 -162 263 -272 29 -53 61 -115 71 -137 10 -22 29 -51 41 -65 23 -24 23 -28 15 -125 -4 -55 -8 -140 -9 -189 0 -79 -3 -94 -30 -145 -40 -73 -46 -80 -104 -124 -53 -40 -126 -77 -254 -128 -81 -31 -84 -32 -112 -16 -20 12 -40 15 -72 11 -35 -5 -54 -1 -89 16 -41 21 -57 33 -143 103 -18 15 -38 27 -43 27 -5 0 -30 -20 -56 -45 -48 -45 -48 -45 -215 -45 -177 0 -232 10 -299 51 -48 30 -65 59 -57 98 8 37 -18 71 -68 92 -19 8 -38 29 -55 63 -23 45 -26 62 -26 151 1 100 1 100 49 190 44 82 68 109 257 297 247 246 252 254 252 403 0 99 -15 191 -39 250 -7 17 -21 66 -30 110 -9 44 -22 100 -29 125 -6 25 -11 71 -12 102 0 31 -4 60 -7 63 -8 8 -48 -13 -48 -24 0 -13 -95 -79 -124 -87 -29 -7 -80 18 -100 49 -8 12 -28 63 -44 112 -25 72 -34 126 -47 275 -17 189 -29 235 -75 300 -27 37 -50 38 -92 2 -18 -15 -44 -36 -58 -45 -14 -9 -44 -32 -66 -50 -214 -167 -268 -209 -334 -259 -41 -31 -99 -74 -128 -95 -30 -21 -81 -61 -115 -88 -34 -28 -84 -66 -112 -85 -139 -95 -312 -278 -353 -373 -22 -48 -22 -48 9 -105 16 -31 45 -81 64 -111 27 -42 32 -58 24 -72 -17 -32 -45 -21 -123 47 -77 67 -97 74 -126 39 -8 -10 -31 -15 -61 -15 -57 0 -63 8 -73 90 -6 49 -4 59 19 89 52 72 17 194 -85 293 -27 26 -65 68 -85 93 -21 25 -43 45 -49 45 -7 0 -35 31 -63 68 -87 117 -410 430 -549 533 -30 22 -54 43 -54 47 0 5 -19 22 -43 38 -56 41 -299 255 -412 364 -49 48 -103 95 -120 105 -90 56 -170 127 -250 222 -49 58 -130 145 -179 192 -317 307 -476 476 -476 507 0 25 -37 44 -88 44 -63 0 -82 17 -82 73 0 38 -7 49 -71 117 -83 88 -89 98 -89 142 0 55 11 78 39 85 43 10 98 41 105 58 3 9 11 69 16 133 6 65 15 167 21 227 31 294 4 1142 -41 1315 -17 65 -40 224 -51 350 -6 69 -17 152 -24 185 -25 107 -53 628 -61 1140 -7 467 -20 681 -44 743 -25 65 -27 241 -5 347 21 98 19 229 -5 280 -18 39 -19 -152 -19 -7437 l -1 -7478 12500 0 12500 0 0 10300 0 10300 -12500 0 -12500 0 0 -2787 z  m 7637 -4456 c 6 -4 17 -24 24 -45 6 -20 23 -59 37 -87 14 -27 33 -78 43 -113 10 -35 23 -69 28 -76 6 -7 27 -59 46 -117 20 -57 43 -113 50 -125 7 -11 22 -49 33 -85 11 -35 28 -79 38 -98 18 -35 71 -179 81 -217 5 -21 1 -22 -84 -26 -48 -2 -93 -3 -99 -1 -13 4 -104 233 -104 261 0 9 -7 31 -16 47 -20 39 -40 94 -66 180 -11 39 -25 79 -32 90 -6 11 -18 40 -26 65 -17 50 -44 65 -55 28 -3 -13 -12 -36 -20 -53 -7 -16 -21 -57 -30 -90 -15 -55 -42 -123 -66 -167 -5 -10 -9 -26 -9 -36 0 -20 -38 -131 -50 -147 -4 -5 -15 -37 -25 -70 -31 -110 -22 -102 -127 -107 -51 -3 -99 -3 -105 0 -19 6 -16 40 7 77 11 18 31 61 44 96 13 35 40 104 60 153 20 49 36 93 36 98 0 5 14 40 31 76 17 37 38 90 46 117 8 28 23 66 34 85 10 19 28 63 39 97 29 90 68 176 86 189 16 13 131 13 151 1 z  m 731 0 c 9 -6 12 -116 12 -491 0 -375 -3 -486 -12 -493 -21 -15 -169 -8 -179 8 -5 8 -9 226 -9 486 0 396 2 474 14 486 16 15 150 18 174 4 z  m 854 -16 c 31 -11 78 -32 103 -46 52 -31 135 -121 135 -147 0 -18 -113 -97 -138 -98 -8 0 -39 25 -70 55 -43 42 -70 60 -111 72 -136 39 -271 -27 -332 -162 -30 -67 -33 -224 -6 -300 48 -132 195 -203 338 -162 41 12 68 30 112 73 57 56 57 56 124 8 36 -27 68 -54 70 -60 6 -17 -79 -112 -128 -142 -96 -60 -124 -67 -259 -66 -143 1 -192 15 -283 83 -95 70 -154 158 -191 284 -28 98 -15 254 28 322 7 11 18 37 25 57 17 51 143 177 207 208 27 12 69 29 94 36 62 19 209 11 282 -15 z  m 1239 10 c 30 -10 70 -28 90 -40 37 -22 37 -22 79 14 23 19 45 35 48 36 4 0 56 2 115 3 89 3 110 1 114 -11 3 -9 -5 -24 -19 -36 -13 -12 -57 -57 -97 -99 -73 -77 -73 -77 -43 -140 31 -64 61 -221 48 -254 -5 -12 -20 -14 -78 -12 -70 3 -73 4 -76 28 -6 62 -28 142 -40 153 -11 9 -29 -5 -88 -67 -41 -43 -74 -87 -74 -96 0 -10 21 -36 46 -56 58 -48 104 -136 104 -199 0 -138 -150 -245 -303 -216 -72 13 -130 43 -156 80 -11 16 -32 32 -45 35 -56 14 -57 215 -1 236 23 9 75 75 75 96 0 17 -42 51 -71 58 -45 10 -119 142 -119 211 0 76 81 225 122 225 12 0 29 7 39 16 59 53 226 71 330 35 z  m 1378 4 c 7 -7 12 -151 13 -410 l 3 -400 145 -3 c 79 -1 149 -7 153 -11 12 -12 18 -134 8 -150 -6 -10 -98 -12 -405 -12 -218 0 -401 3 -406 6 -14 9 -12 139 2 153 8 8 54 12 143 12 89 0 135 4 143 12 9 9 12 113 12 405 0 340 2 393 15 401 22 12 162 9 174 -3 z  m 498 2 c 6 -4 17 -24 23 -45 11 -36 27 -75 66 -157 19 -40 19 -40 168 -43 105 -2 153 1 163 10 26 21 82 150 83 189 0 40 24 52 114 54 109 4 128 -8 97 -61 -11 -18 -29 -64 -41 -101 -19 -63 -40 -117 -59 -153 -4 -8 -18 -49 -31 -90 -13 -41 -29 -84 -36 -95 -7 -11 -27 -63 -45 -115 -18 -52 -38 -104 -46 -116 -7 -11 -20 -45 -29 -75 -20 -71 -55 -161 -68 -176 -15 -16 -162 -21 -178 -5 -6 6 -17 26 -23 44 -7 18 -24 62 -38 98 -14 36 -47 121 -73 190 -26 69 -52 139 -59 155 -38 91 -65 165 -65 176 0 7 -9 31 -19 53 -37 80 -50 112 -70 173 -24 72 -26 90 -8 96 18 7 161 2 174 -6 z  m 1332 3 c 84 -16 200 -77 237 -125 59 -78 55 -257 -8 -322 -17 -18 -39 -33 -49 -33 -9 0 -21 -6 -27 -13 -16 -19 -118 -63 -192 -82 -184 -49 -232 -74 -246 -132 -10 -38 37 -100 82 -109 90 -17 223 12 291 64 33 24 33 24 76 -20 25 -24 52 -59 62 -77 20 -40 12 -52 -50 -74 -22 -8 -69 -28 -105 -43 -60 -26 -75 -29 -195 -29 -128 0 -131 1 -197 34 -99 50 -161 130 -174 229 -11 88 1 135 53 192 54 60 113 91 242 126 51 14 114 35 140 46 102 43 129 107 70 164 -29 28 -34 29 -127 29 -106 0 -163 -17 -261 -74 -28 -17 -59 -31 -67 -31 -17 0 -74 116 -74 149 0 11 15 31 33 44 105 77 329 117 486 87 z  M9711.14445643776 11112.019035262745 C 9711.14445643776 10792.926562141125 9452.468897363555 10534.251003066918 9133.376424241935 10534.251003066918 8814.283951120315 10534.251003066918 8555.60839204611 10792.926562141125 8555.60839204611 11112.019035262745 8555.60839204611 11431.111508384365 8814.283951120315 11689.787067458572 9133.376424241935 11689.787067458572 9452.468897363555 11689.787067458572 9711.14445643776 11431.111508384365 9711.14445643776 11112.019035262745 Z M9317.0 11661.0  m 1147 -5 c 73 -27 126 -59 186 -114 58 -53 70 -53 70 1 0 37 6 48 38 79 20 20 47 41 59 47 46 24 171 7 174 -23 0 -6 2 -45 3 -86 2 -73 1 -76 -31 -107 -34 -32 -34 -32 -32 -458 0 -234 -1 -428 -3 -430 -2 -2 -52 -5 -111 -6 -85 -2 -111 1 -118 12 -5 8 -9 165 -9 349 -1 335 -1 335 -39 390 -45 66 -140 145 -184 155 -18 4 -57 9 -87 11 -48 4 -60 1 -95 -24 -22 -15 -45 -39 -51 -52 -52 -110 -49 -81 -52 -467 -3 -330 -4 -363 -20 -371 -9 -4 -69 -5 -132 -2 l -115 5 -3 355 c -2 368 2 418 49 583 14 50 96 137 130 137 13 0 35 7 47 16 55 39 219 38 326 0 z  m 1378 3 c 162 -55 248 -165 248 -319 0 -70 -10 -98 -52 -152 -65 -80 -147 -118 -384 -178 -162 -41 -205 -63 -224 -117 -13 -38 -13 -48 0 -85 13 -36 23 -47 70 -71 52 -27 61 -28 145 -24 98 6 160 25 245 78 28 17 57 28 65 25 8 -3 31 -30 51 -61 32 -48 36 -59 26 -80 -17 -36 -130 -92 -242 -120 -100 -24 -171 -27 -260 -12 -133 24 -211 66 -273 149 -48 63 -67 120 -67 199 0 78 22 128 73 171 70 59 104 73 327 135 114 32 183 57 214 78 83 56 66 158 -37 211 -63 33 -263 25 -324 -12 -12 -8 -28 -14 -34 -14 -7 0 -46 -20 -87 -45 -42 -25 -81 -44 -88 -41 -7 3 -25 27 -38 55 -14 27 -30 52 -36 56 -66 41 159 164 355 195 93 14 254 4 327 -21 z  m 1172 -4 c 92 -35 123 -51 174 -94 51 -43 125 -139 119 -155 -3 -6 -26 -17 -53 -24 -27 -7 -67 -20 -88 -28 -35 -12 -43 -12 -62 1 -12 8 -25 23 -28 33 -16 48 -174 122 -261 122 -42 0 -120 -25 -170 -54 -94 -56 -185 -239 -129 -260 9 -3 203 -6 431 -5 339 1 417 -1 425 -12 24 -36 -11 -272 -52 -350 -24 -44 -94 -129 -133 -160 -186 -152 -430 -177 -652 -67 -98 48 -160 108 -221 210 -38 64 -48 94 -66 189 -22 119 -23 106 13 294 11 60 95 195 154 249 52 48 176 111 245 125 30 6 64 13 75 15 11 3 63 3 115 1 71 -3 113 -11 164 -30 z  m 4344 1 c 75 -26 154 -74 185 -113 23 -29 35 -29 47 1 5 13 20 35 34 49 14 15 26 30 26 35 0 17 89 52 131 52 73 0 79 -8 79 -113 0 -76 -4 -96 -20 -117 -18 -23 -20 -43 -20 -275 -1 -288 -10 -356 -61 -440 -56 -95 -110 -129 -284 -182 -80 -24 -243 -22 -345 6 -103 27 -247 95 -255 121 -7 22 21 97 47 127 20 21 20 21 91 -17 107 -57 184 -80 271 -80 165 0 266 91 266 241 0 72 -10 79 -84 55 -38 -11 -90 -16 -190 -16 -120 0 -147 3 -212 25 -117 39 -164 75 -235 180 -32 48 -33 54 -33 140 0 79 4 97 28 145 56 107 163 185 281 203 60 10 183 -4 253 -27 z  m 2567 2 c 85 -25 121 -42 128 -62 4 -9 -2 -37 -13 -63 -10 -26 -21 -60 -24 -75 -5 -22 -12 -28 -34 -28 -15 1 -38 7 -52 15 -14 8 -49 14 -78 15 -46 0 -58 -4 -83 -29 -18 -18 -29 -40 -30 -58 0 -15 0 -160 0 -322 0 -232 2 -296 13 -302 7 -5 57 -9 110 -9 66 0 99 -4 105 -12 14 -23 11 -147 -4 -160 -9 -7 -50 -11 -106 -10 -51 1 -99 -2 -107 -7 -12 -8 -14 -38 -11 -171 2 -115 -1 -165 -9 -175 -10 -12 -38 -15 -121 -15 -60 0 -110 1 -111 3 -1 1 -4 83 -7 182 -6 180 -6 180 -63 180 -31 0 -62 5 -68 11 -7 7 -10 42 -8 90 3 79 3 79 48 82 99 5 88 -40 92 395 4 428 4 428 76 486 91 72 203 84 357 39 z  m 1547 7 c 72 -21 112 -46 178 -109 70 -67 115 -129 107 -149 -3 -8 -41 -24 -86 -37 -80 -23 -80 -23 -108 11 -66 79 -108 103 -212 120 -54 9 -84 9 -133 -1 -79 -15 -108 -30 -164 -85 -43 -42 -104 -152 -104 -186 0 -38 17 -39 443 -38 229 0 422 -3 428 -7 15 -9 6 -218 -12 -279 -16 -57 -86 -159 -159 -234 -80 -80 -159 -116 -290 -131 -211 -24 -376 31 -510 170 -62 64 -81 92 -108 156 -64 156 -70 288 -20 440 19 59 37 92 89 171 64 94 216 182 353 204 68 11 251 1 308 -16 z  m 1092 15 c 102 -15 204 -67 259 -133 56 -66 67 -100 67 -204 0 -96 -13 -133 -63 -181 -37 -35 -154 -96 -212 -111 -302 -75 -366 -100 -384 -154 -36 -103 53 -187 198 -187 92 0 184 28 264 82 32 21 62 36 68 33 15 -10 89 -125 89 -139 0 -17 -48 -51 -122 -84 -137 -63 -260 -81 -389 -59 -152 27 -242 82 -298 182 -63 112 -64 225 -1 304 58 73 123 104 350 166 77 21 194 61 221 75 25 14 49 62 49 98 0 41 -38 93 -85 117 -32 16 -60 20 -135 20 -114 0 -202 -25 -312 -90 -40 -23 -78 -40 -85 -38 -16 6 -83 116 -83 135 0 35 93 90 227 134 125 41 249 52 377 34 z  m -7616 -21 c 162 -40 306 -125 381 -225 76 -101 75 -106 -5 -149 -31 -16 -70 -40 -87 -52 -37 -27 -59 -19 -86 36 -11 21 -42 56 -68 78 -187 154 -417 149 -593 -13 -55 -52 -133 -170 -153 -234 -19 -61 -27 -194 -17 -278 18 -157 121 -321 245 -392 131 -75 296 -78 430 -8 55 29 115 83 148 135 26 42 58 56 72 33 4 -6 23 -19 43 -30 20 -11 55 -35 76 -54 39 -34 39 -34 15 -66 -88 -116 -192 -206 -278 -239 -135 -54 -333 -64 -476 -26 -204 54 -375 207 -469 417 -47 107 -47 107 -44 325 4 218 4 218 51 315 167 345 480 509 815 427 z  m -7630 -4 c 9 -3 12 -74 12 -309 0 -167 3 -311 6 -320 5 -14 47 -16 364 -16 286 0 360 3 369 13 7 9 12 115 13 323 l 3 309 109 3 c 81 2 112 -1 118 -10 13 -21 10 -1475 -3 -1484 -14 -9 -204 -8 -218 1 -8 4 -11 102 -11 304 0 218 -3 300 -12 309 -17 17 -709 17 -726 0 -9 -9 -12 -91 -12 -309 0 -203 -3 -300 -11 -305 -15 -9 -203 -9 -217 0 -9 5 -12 189 -12 746 0 630 2 740 14 747 14 8 189 6 214 -2 z  m 8512 -15 c 8 -14 10 -126 9 -341 -1 -272 1 -322 14 -337 8 -9 18 -27 21 -39 10 -33 95 -112 150 -140 28 -14 75 -28 106 -30 47 -5 64 -1 107 21 43 21 56 35 80 83 28 58 28 58 33 420 3 241 9 366 16 373 7 7 50 10 115 8 l 104 -3 0 -410 c 0 -406 0 -411 -24 -485 -56 -174 -215 -257 -410 -215 -41 8 -94 24 -119 35 -54 24 -148 102 -157 130 -7 22 -34 27 -36 8 0 -7 0 -139 1 -294 1 -237 -1 -282 -13 -292 -10 -9 -49 -12 -123 -10 l -109 3 -3 754 c -1 549 1 758 9 767 8 10 40 14 115 14 94 0 104 -2 114 -20 z  m 2500 -320 c 6 -375 6 -377 77 -441 55 -50 157 -98 223 -106 30 -3 61 -10 68 -16 18 -14 17 -191 -2 -206 -18 -15 -119 0 -168 24 -61 31 -137 94 -168 140 -46 66 -56 56 -51 -52 3 -81 1 -92 -15 -100 -30 -14 -185 -7 -195 9 -13 20 -11 1045 2 1069 9 18 19 19 117 17 l 107 -3 5 -335 z  m 804 324 c 11 -30 7 -1072 -5 -1080 -6 -3 -56 -7 -111 -7 -76 0 -102 3 -109 14 -13 20 -12 1045 1 1070 10 17 22 19 114 19 86 0 105 -3 110 -16 z  m 1334 4 c 9 -9 12 -141 12 -534 0 -287 -3 -529 -6 -538 -5 -13 -25 -16 -114 -16 -60 0 -112 4 -115 10 -8 13 -8 1067 0 1080 9 15 208 13 223 -2 z  m -1337 -1285 c 6 -6 8 -57 7 -124 l -3 -114 -104 -3 c -67 -2 -108 1 -117 9 -10 8 -14 38 -14 113 0 101 4 120 28 127 25 8 193 2 203 -8 z  m 1340 -5 c 14 -21 11 -212 -3 -226 -8 -8 -48 -12 -115 -12 -88 0 -103 2 -110 18 -7 13 -9 159 -4 219 1 16 21 18 130 16 64 -1 97 -6 102 -15 z  M9521.244756426908 8998.397227449936 C 9521.244756426908 8679.566171732717 9262.781118030662 8421.10253333647 8943.950062313443 8421.10253333647 8625.119006596224 8421.10253333647 8366.655368199978 8679.566171732717 8366.655368199978 8998.397227449936 8366.655368199978 9317.228283167155 8625.119006596224 9575.6919215634 8943.950062313443 9575.6919215634 9262.781118030662 9575.6919215634 9521.244756426908 9317.228283167155 9521.244756426908 8998.397227449936 Z M9180.0 9527.0  m 2362 0 c 41 -20 96 -55 121 -78 26 -22 53 -39 60 -36 7 2 17 24 24 48 21 78 87 116 183 103 67 -9 70 -15 70 -115 0 -88 -2 -93 -42 -122 -16 -11 -18 -40 -21 -297 -3 -311 -5 -323 -67 -419 -48 -74 -117 -127 -207 -157 -70 -24 -92 -26 -213 -26 -154 1 -219 16 -341 77 -101 50 -106 56 -90 101 20 55 51 104 67 104 7 0 36 -14 64 -30 72 -42 115 -59 190 -74 113 -23 210 -7 273 45 51 42 73 90 82 175 8 82 2 89 -61 73 -88 -23 -144 -29 -236 -27 -219 4 -391 100 -443 248 -19 54 -19 162 0 218 22 61 76 129 137 170 79 54 117 62 254 59 117 -3 124 -4 196 -40 z  m 1067 32 c 63 -10 120 -32 133 -52 3 -5 0 -28 -8 -50 -8 -22 -14 -50 -14 -62 0 -52 -6 -56 -89 -49 -93 8 -115 -1 -142 -59 -18 -40 -19 -75 -19 -658 0 -553 -2 -617 -16 -623 -9 -3 -55 -6 -104 -6 -67 0 -92 4 -104 16 -14 14 -16 86 -16 647 0 767 2 787 93 859 19 15 50 31 68 36 46 14 140 14 218 1 z  m 882 -5 c 66 -19 151 -74 201 -128 31 -34 39 -38 48 -26 5 8 10 28 10 43 0 37 14 61 50 87 31 22 37 24 113 35 49 8 116 -9 118 -28 1 -7 0 -50 -1 -97 -2 -78 -4 -87 -31 -118 -30 -33 -30 -33 -29 -669 1 -517 -1 -638 -12 -644 -21 -14 -222 -11 -236 3 -9 9 -12 89 -12 299 0 158 -4 290 -8 293 -5 3 -37 -23 -73 -56 -38 -37 -90 -73 -127 -91 -59 -27 -72 -30 -180 -30 -114 0 -119 1 -193 36 -110 53 -215 167 -269 292 -54 127 -43 424 20 515 10 14 27 43 38 65 45 87 195 201 296 226 58 13 220 10 277 -7 z  m 3879 -14 c 69 -30 155 -87 199 -134 19 -20 41 -36 48 -36 7 0 21 -16 30 -36 17 -34 17 -36 -2 -50 -10 -8 -26 -14 -35 -14 -9 0 -49 -11 -90 -25 -100 -33 -114 -32 -139 9 -26 41 -99 89 -163 106 -127 34 -284 -44 -343 -168 -73 -152 -74 -246 -4 -389 54 -111 167 -178 289 -171 96 5 158 39 228 123 16 19 27 25 40 20 65 -27 151 -55 173 -55 38 0 55 -24 41 -56 -7 -13 -20 -28 -31 -32 -10 -4 -31 -22 -46 -40 -40 -48 -125 -108 -187 -133 -70 -28 -201 -40 -315 -29 -72 7 -107 16 -165 43 -110 53 -170 106 -248 222 -11 17 -32 68 -47 115 -38 122 -37 251 2 373 15 48 38 102 51 120 13 18 33 46 44 64 49 74 201 171 305 193 22 5 101 8 175 6 117 -2 143 -5 190 -26 z  M20461.3808752583 8998.869295148286 C 20461.3808752583 8680.093385394775 20202.961941498463 8421.67445163494 19884.186031744954 8421.67445163494 19565.410121991445 8421.67445163494 19306.99118823161 8680.093385394775 19306.99118823161 8998.869295148286 19306.99118823161 9317.645204901797 19565.410121991445 9576.064138661632 19884.186031744954 9576.064138661632 20202.961941498463 9576.064138661632 20461.3808752583 9317.645204901797 20461.3808752583 8998.869295148286 Z M20030.0 9559.0  m 2375 -3 c 68 -18 124 -48 189 -101 63 -51 76 -55 76 -22 0 28 50 101 81 118 30 16 139 16 167 1 20 -12 22 -20 22 -102 0 -85 -1 -89 -27 -108 -28 -20 -28 -20 -33 -314 -5 -293 -5 -293 -40 -363 -37 -74 -111 -154 -170 -185 -77 -40 -150 -53 -285 -52 -98 1 -146 6 -195 20 -87 27 -192 77 -219 106 -22 24 -22 24 -1 72 42 98 46 99 129 50 126 -73 282 -97 393 -60 52 17 106 72 133 137 17 41 20 142 5 152 -5 3 -40 -2 -77 -12 -50 -13 -104 -18 -203 -18 -115 1 -145 4 -200 24 -124 44 -228 132 -252 213 -17 59 -14 193 6 246 29 81 116 160 216 197 46 18 221 18 285 1 z  m 1151 1 c 39 -7 83 -21 98 -31 25 -16 27 -21 21 -59 -4 -22 -13 -59 -19 -82 -13 -44 -2 -41 -124 -35 -37 2 -48 -2 -78 -31 -34 -33 -34 -33 -34 -660 0 -557 -2 -629 -16 -643 -21 -22 -206 -23 -223 -2 -9 10 -11 192 -9 692 3 679 3 679 29 735 54 115 161 150 355 116 z  m 914 -16 c 64 -29 123 -71 155 -108 39 -48 61 -44 68 12 8 78 63 118 163 118 79 0 149 -36 113 -59 -8 -4 -9 -26 -5 -64 6 -50 4 -59 -17 -82 -13 -13 -32 -30 -43 -36 -18 -10 -19 -30 -24 -664 l -5 -653 -97 -3 c -152 -4 -140 -31 -137 304 1 156 -1 287 -4 290 -3 3 -27 -15 -54 -41 -75 -72 -156 -113 -247 -125 -110 -14 -188 -3 -271 36 -129 61 -245 205 -281 349 -25 97 -22 286 5 372 45 145 138 260 265 329 89 48 117 54 256 50 90 -3 125 -8 160 -25 z  m -17156 13 c 14 -5 16 -37 16 -253 0 -179 3 -250 12 -259 8 -8 59 -12 164 -12 153 0 153 0 188 44 20 23 36 48 36 53 0 6 14 30 32 54 17 24 46 69 63 99 18 30 51 84 74 120 23 36 49 78 59 94 38 64 42 66 165 66 61 0 119 -5 127 -10 17 -11 4 -40 -65 -147 -22 -33 -58 -91 -80 -127 -22 -37 -50 -81 -62 -99 -12 -17 -36 -58 -52 -89 -17 -31 -35 -59 -41 -63 -24 -15 -10 -51 28 -70 66 -35 149 -122 181 -191 49 -105 66 -194 54 -280 -19 -131 -111 -288 -207 -353 -129 -86 -172 -93 -586 -89 l -325 3 -5 738 c -3 406 -2 747 2 758 7 17 18 19 107 19 55 0 106 -3 115 -6 z  m 2640 0 c 14 -5 16 -45 16 -338 1 -331 1 -331 48 -401 26 -40 56 -72 67 -74 11 -2 34 -15 50 -29 80 -67 183 -89 254 -53 46 24 63 49 86 126 15 52 17 105 16 407 -1 334 0 348 18 358 23 12 190 13 209 1 11 -6 13 -85 12 -395 -1 -496 -8 -545 -99 -647 -56 -65 -103 -81 -226 -81 -83 -1 -113 4 -174 26 -41 14 -84 35 -96 46 -12 11 -32 20 -44 20 -15 0 -39 17 -66 47 -30 32 -48 44 -59 40 -14 -6 -16 -16 -10 -65 10 -94 2 -102 -109 -102 -59 0 -97 4 -105 12 -9 9 -12 145 -12 550 0 501 1 538 18 547 18 11 180 15 206 5 z  m 5104 -6 c 9 -9 12 -136 12 -508 0 -273 3 -499 6 -503 14 -13 37 9 63 62 53 106 109 212 119 224 6 7 28 46 50 87 22 41 61 113 87 160 27 47 61 112 78 145 16 33 34 63 41 67 18 13 121 9 137 -4 21 -17 36 -44 110 -184 34 -65 69 -130 79 -144 24 -36 149 -269 198 -367 24 -49 51 -70 52 -40 1 6 0 233 0 504 -1 480 0 492 19 502 28 15 204 14 219 -1 16 -16 17 -1459 2 -1489 -10 -17 -22 -19 -121 -19 -61 0 -118 4 -128 10 -10 5 -28 31 -41 57 -12 26 -39 80 -60 118 -21 39 -57 107 -80 152 -23 45 -45 85 -51 88 -5 4 -24 38 -44 78 -19 40 -44 90 -57 112 -12 22 -41 72 -63 110 -22 39 -50 91 -62 118 -25 53 -48 61 -64 20 -5 -14 -22 -45 -37 -67 -15 -23 -36 -61 -47 -86 -10 -25 -25 -52 -33 -62 -12 -15 -41 -67 -126 -228 -95 -183 -119 -226 -126 -235 -5 -6 -23 -40 -41 -75 -53 -110 -54 -110 -190 -110 -97 0 -118 3 -123 16 -3 9 -6 348 -6 754 0 581 3 739 13 743 27 11 203 7 215 -5 z  m 3547 -13 c 197 -54 318 -134 414 -275 57 -83 68 -108 102 -237 29 -111 31 -126 27 -253 -3 -86 -11 -151 -21 -180 -8 -25 -23 -71 -32 -102 -37 -134 -169 -288 -303 -357 -148 -76 -249 -91 -613 -91 -201 0 -278 3 -287 12 -18 18 -17 1494 1 1502 6 3 156 4 332 2 258 -3 332 -7 380 -21 z  m 2303 13 c 9 -9 12 -100 12 -348 0 -336 0 -336 44 -396 96 -132 259 -202 353 -150 15 8 43 22 60 31 67 31 68 37 71 465 2 345 4 386 19 398 22 16 175 16 191 0 9 -9 12 -113 12 -407 0 -423 -3 -453 -57 -596 -37 -98 -157 -137 -348 -116 -127 15 -226 60 -304 141 -21 22 -44 40 -50 40 -7 0 -11 -26 -11 -72 0 -40 -4 -79 -8 -86 -6 -9 -36 -12 -113 -10 l -104 3 -3 545 c -1 300 0 551 3 558 6 17 216 17 233 0 z "></path><path id="ptrcNshrg" d="M 10283 13205 c -39 -18 -93 -89 -93 -122 0 -32 46 -110 78 -131 23 -15 25 -15 38 3 8 10 14 24 14 31 0 7 6 17 14 21 25 15 136 143 136 158 0 40 -127 67 -187 40 z "></path><path id="pzKfICrSz" d="M 10279 12648 c -21 -24 -39 -51 -39 -62 0 -26 66 -86 95 -86 24 0 75 54 75 79 0 19 -57 98 -76 105 -11 4 -28 -7 -55 -36 z "></path><path id="pCwKHW8tY" d="M 12480 12960 c 0 -17 52 -174 63 -187 5 -7 17 -38 26 -70 30 -101 47 -83 116 122 14 44 29 95 32 113 5 32 5 32 -116 32 -77 0 -121 -4 -121 -10 z "></path><path id="pI2lWTVfH" d="M9481.284121973882 11113.971846067732 C 9481.284121973882 11305.792912533187 9325.782423282139 11461.29461122493 9133.961356816684 11461.29461122493 8942.14029035123 11461.29461122493 8786.638591659486 11305.792912533187 8786.638591659486 11113.971846067732 8786.638591659486 10922.150779602278 8942.14029035123 10766.649080910534 9133.961356816684 10766.649080910534 9325.782423282139 10766.649080910534 9481.284121973882 10922.150779602278 9481.284121973882 11113.971846067732 Z M9029.0 11461.0 "></path><path id="pxyuFX0bU" d="M 12495 11010 c -9 -15 5 -80 26 -120 58 -111 201 -190 318 -175 125 16 228 93 276 207 15 37 25 74 22 82 -6 14 -46 16 -321 16 -195 0 -317 -4 -321 -10 z "></path><path id="pFCLPC6vu" d="M 17170 11497 c -96 -33 -140 -90 -140 -180 0 -97 63 -154 200 -183 66 -13 82 -13 169 1 147 25 145 24 149 126 3 86 3 86 -43 136 -33 38 -62 58 -111 77 -77 31 -174 41 -224 23 z "></path><path id="pVvmTxehy" d="M 20945 11010 c -17 -27 39 -142 97 -199 81 -81 192 -113 308 -88 85 18 138 46 183 96 49 55 69 96 71 150 1 46 1 46 -326 49 -217 1 -329 -1 -333 -8 z "></path><path id="p10W25zRsL" d="M9292.804365843465 8999.297211100702 C 9292.804365843465 9191.610722652644 9136.903461533317 9347.511626962792 8944.589949981375 9347.511626962792 8752.276438429433 9347.511626962792 8596.375534119285 9191.610722652644 8596.375534119285 8999.297211100702 8596.375534119285 8806.98369954876 8752.276438429433 8651.082795238612 8944.589949981375 8651.082795238612 9136.903461533317 8651.082795238612 9292.804365843465 8806.98369954876 9292.804365843465 8999.297211100702 Z M8840.0 9349.0 "></path><path id="p1CJab8nzj" d="M 11334 9391 c -64 -11 -126 -59 -150 -117 -50 -119 35 -230 194 -254 86 -14 225 0 282 28 34 16 35 20 38 77 5 87 -10 126 -69 179 -77 69 -195 104 -295 87 z "></path><path id="pqBV1ro5t" d="M13748.767900259367 8998.6043907619 C 13748.767900259367 9190.708782053118 13593.036521415701 9346.440160896784 13400.932130124484 9346.440160896784 13208.827738833266 9346.440160896784 13053.0963599896 9190.708782053118 13053.0963599896 8998.6043907619 13053.0963599896 8806.499999470683 13208.827738833266 8650.768620627017 13400.932130124484 8650.768620627017 13593.036521415701 8650.768620627017 13748.767900259367 8806.499999470683 13748.767900259367 8998.6043907619 Z M13302.0 9348.0 "></path><path id="p17UsKNF6r" d="M20235.827907567593 8999.912231777946 C 20235.827907567593 9191.990471529469 20080.117728735586 9347.700650361472 19888.039488984065 9347.700650361472 19695.961249232543 9347.700650361472 19540.251070400536 9191.990471529469 19540.251070400536 8999.912231777946 19540.251070400536 8807.833992026422 19695.961249232543 8652.12381319442 19888.039488984065 8652.12381319442 20080.117728735586 8652.12381319442 20235.827907567593 8807.833992026422 20235.827907567593 8999.912231777946 Z M19783.0 9350.0 "></path><path id="pDQO7QyA9" d="M 22268 9390 c -174 -52 -214 -240 -70 -330 87 -54 248 -61 392 -17 45 14 45 14 48 99 3 85 3 85 -45 135 -61 62 -103 87 -179 107 -67 17 -104 19 -146 6 z "></path><path id="pMq4YvRc8" d="M24687.689983569846 9003.027666887661 C 24687.689983569846 9195.193007339645 24531.909195669043 9350.973795240447 24339.74385521706 9350.973795240447 24147.57851476508 9350.973795240447 23991.797726864275 9195.193007339645 23991.797726864275 9003.027666887661 23991.797726864275 8810.862326435677 24147.57851476508 8655.081538534876 24339.74385521706 8655.081538534876 24531.909195669043 8655.081538534876 24687.689983569846 8810.862326435677 24687.689983569846 9003.027666887661 Z M24255.0 9352.0 "></path><path id="pV17RHLHb" d="M 7336 8794 c -3 -9 -6 -127 -6 -264 0 -203 3 -250 14 -259 11 -9 73 -12 228 -9 213 3 213 3 259 32 49 31 93 91 121 166 22 59 22 95 -1 162 -28 81 -65 134 -114 162 -43 26 -45 26 -269 26 -197 0 -227 -2 -232 -16 z "></path><path id="pIorsuL0g" d="M 18133 9334 c -18 -8 -19 -1044 -1 -1062 15 -15 289 -16 374 -2 118 21 201 71 285 172 61 72 109 221 110 337 1 105 -5 143 -41 247 -49 143 -150 242 -298 291 -47 15 -402 29 -429 17 z "></path><path id="pxDgUIpdE" d="M 3515 14960 c -22 -4 -112 -10 -200 -14 -309 -11 -524 -34 -572 -59 -80 -43 -106 -47 -331 -46 -119 0 -251 4 -292 9 -41 5 -120 13 -175 19 -54 6 -113 16 -130 23 -35 15 -400 17 -780 5 -188 -6 -241 -11 -289 -27 -72 -24 -113 -25 -167 -4 -38 16 -45 16 -94 0 -40 -12 -60 -14 -80 -6 -42 16 -102 12 -146 -11 -38 -19 -41 -23 -35 -52 3 -18 6 -149 6 -292 1 -143 6 -348 11 -455 6 -107 10 -206 9 -220 -1 -14 -2 -32 -1 -40 1 -8 6 -118 11 -245 5 -126 12 -264 15 -305 29 -362 44 -588 50 -775 9 -258 9 -260 19 -305 3 -19 11 -102 16 -185 5 -82 14 -177 20 -210 6 -33 17 -211 25 -395 7 -184 18 -348 24 -363 15 -38 14 -74 -4 -126 -17 -48 -37 -311 -37 -491 0 -123 17 -419 26 -454 3 -12 51 -68 107 -125 55 -57 109 -116 118 -130 36 -58 125 -159 177 -201 78 -63 141 -126 194 -194 96 -125 298 -337 411 -431 20 -17 105 -90 190 -164 85 -73 174 -150 198 -170 274 -227 522 -460 674 -634 32 -37 63 -67 69 -67 33 0 238 -301 238 -349 0 -34 28 -69 65 -81 45 -15 93 10 159 80 27 29 76 71 111 94 61 42 104 77 156 126 80 76 187 153 235 170 20 7 43 29 63 60 18 27 46 59 64 71 18 12 46 36 63 53 57 58 149 141 237 214 48 40 87 77 87 82 0 4 28 28 62 52 149 104 328 303 428 473 78 133 96 157 143 195 29 22 90 70 137 107 77 60 248 207 403 346 33 28 76 66 97 82 210 163 252 195 259 195 4 0 16 9 25 19 16 17 17 35 9 183 -4 90 -5 220 -1 289 3 68 4 183 1 254 -5 118 -8 134 -32 175 -41 69 -64 164 -50 207 8 26 8 41 -2 65 -9 21 -12 86 -12 207 0 128 -3 185 -13 210 -8 19 -14 70 -14 120 -1 60 -5 92 -15 105 -8 11 -15 39 -15 63 0 23 -7 61 -16 83 -11 26 -14 51 -9 73 3 17 10 129 14 247 7 206 8 217 34 273 28 57 28 57 28 587 0 323 -4 537 -10 548 -6 11 -10 146 -10 323 0 331 -9 558 -22 574 -4 6 -9 107 -11 224 -3 210 -3 213 -27 232 -14 12 -32 17 -45 13 -14 -3 -28 2 -40 15 -26 29 -48 26 -74 -8 -22 -30 -22 -30 -184 -29 -90 0 -185 4 -213 9 -27 5 -88 14 -135 19 -47 5 -105 14 -130 19 -44 10 -167 26 -325 43 -44 4 -181 11 -305 13 -124 3 -244 10 -267 15 -48 11 -120 11 -178 0 z  m -431 -559 c 16 -6 40 -20 55 -30 14 -10 53 -24 86 -31 90 -19 118 -41 164 -124 42 -76 57 -90 94 -81 26 6 109 -43 131 -77 8 -13 19 -50 24 -83 6 -39 16 -64 28 -72 84 -58 110 -83 119 -109 15 -45 34 -64 64 -64 44 0 143 -40 181 -72 51 -45 73 -84 81 -145 9 -64 23 -83 98 -125 140 -80 213 -150 241 -233 27 -82 26 -144 -5 -204 -20 -41 -32 -52 -71 -67 -49 -18 -58 -17 -146 20 -24 11 -34 -15 -48 -114 -6 -47 -18 -92 -26 -101 -8 -8 -14 -23 -14 -32 0 -9 -4 -18 -9 -22 -5 -3 -13 -20 -16 -38 -8 -35 -37 -97 -65 -137 -10 -14 -21 -43 -25 -65 -3 -22 -16 -59 -28 -82 -21 -42 -21 -42 0 -72 12 -16 25 -42 29 -57 8 -30 60 -106 129 -186 90 -106 107 -129 135 -180 25 -45 30 -64 30 -126 0 -40 -5 -83 -12 -95 -20 -38 -28 -91 -18 -127 10 -38 61 -80 96 -80 11 0 27 -6 35 -12 25 -21 85 -101 104 -138 9 -19 27 -46 40 -60 12 -14 34 -45 48 -70 15 -25 36 -56 46 -70 18 -25 167 -247 186 -278 29 -47 86 -134 173 -261 31 -46 68 -103 82 -127 14 -24 35 -54 47 -66 52 -57 72 -156 36 -177 -10 -5 -77 -7 -163 -4 -119 5 -154 3 -193 -11 -26 -9 -63 -16 -82 -16 -18 0 -36 -4 -40 -9 -3 -5 -20 -13 -38 -17 -17 -3 -45 -12 -62 -20 -16 -7 -61 -25 -100 -40 -38 -16 -92 -41 -118 -56 -26 -15 -50 -28 -53 -28 -7 0 -100 -63 -173 -117 -73 -54 -246 -225 -336 -332 -64 -76 -96 -89 -127 -53 -22 24 -76 131 -84 167 -4 17 -17 48 -30 70 -22 38 -46 92 -119 270 -19 44 -44 100 -58 125 -13 25 -32 70 -42 100 -10 30 -31 76 -47 103 -15 26 -28 54 -28 62 0 22 -31 96 -57 134 -12 18 -26 49 -29 70 -4 20 -22 63 -40 96 -43 79 -51 130 -30 196 16 49 16 52 -5 96 -22 46 -41 58 -169 109 -88 35 -170 100 -170 135 0 11 -10 41 -21 67 -19 42 -20 51 -9 87 21 69 23 122 6 172 -9 25 -16 63 -16 82 -1 20 -7 59 -14 86 -17 64 -39 66 -47 5 -3 -25 -15 -65 -27 -89 -12 -25 -22 -48 -22 -52 0 -16 -84 -149 -94 -149 -6 0 -17 -12 -24 -27 -6 -16 -23 -48 -37 -73 -24 -41 -25 -51 -20 -120 7 -75 7 -75 -39 -145 -25 -38 -46 -78 -46 -87 0 -9 -11 -29 -24 -45 -13 -16 -38 -57 -55 -92 -17 -35 -35 -69 -41 -75 -5 -7 -25 -42 -43 -77 -60 -113 -98 -183 -133 -240 -19 -31 -34 -61 -34 -66 0 -6 -18 -38 -40 -72 -22 -34 -40 -67 -40 -74 0 -7 -12 -30 -27 -51 -14 -22 -41 -69 -59 -105 -18 -36 -50 -83 -70 -103 -33 -34 -41 -38 -88 -38 -66 0 -99 22 -238 159 -110 107 -209 173 -301 201 -23 7 -58 19 -77 27 -20 8 -60 18 -90 23 -171 28 -189 36 -235 105 -28 40 -32 71 -12 94 7 9 22 36 32 61 10 25 30 63 45 85 14 22 34 60 45 85 10 25 29 59 41 75 12 17 35 57 51 90 43 86 121 226 137 244 7 9 19 33 25 53 7 20 21 48 32 62 11 14 29 47 41 73 11 26 29 60 39 75 11 14 33 54 50 88 55 112 97 169 135 185 60 25 95 56 115 102 10 24 32 63 47 86 16 23 32 54 35 69 4 14 17 39 30 55 13 15 38 58 56 95 41 84 88 128 139 128 20 0 42 4 48 8 7 4 29 39 49 77 21 39 49 84 61 101 13 17 24 37 24 46 0 8 12 30 26 49 14 19 44 71 66 116 40 82 40 82 3 170 -21 48 -48 107 -62 131 -14 25 -30 78 -38 125 -7 45 -21 107 -29 137 -25 85 -21 212 9 298 14 39 25 80 25 90 0 11 10 33 23 50 12 17 36 51 54 75 18 25 37 62 42 83 23 90 40 143 55 171 24 47 120 129 168 144 37 12 46 21 68 66 14 28 36 63 49 78 32 32 162 96 213 103 25 3 46 13 58 29 32 41 123 71 205 68 38 -2 83 -8 99 -14 z "></path><path id="pDMVFDJuf" d="M 2882 14245 c -34 -24 -67 -54 -74 -67 -10 -17 -14 -105 -18 -343 -5 -293 -6 -320 -22 -323 -12 -2 -22 6 -29 25 -6 15 -17 41 -25 56 -8 16 -14 45 -14 64 0 20 -12 61 -26 93 -24 55 -25 64 -21 191 2 74 8 146 12 161 6 22 3 29 -10 35 -21 8 -75 -46 -75 -75 0 -10 -11 -28 -25 -40 -30 -26 -35 -85 -8 -100 9 -5 17 -24 19 -43 3 -41 -4 -71 -16 -64 -20 12 -26 -74 -11 -150 5 -22 9 -35 10 -30 1 6 14 -13 31 -41 26 -46 28 -55 17 -83 -10 -27 -8 -34 13 -63 19 -26 25 -47 26 -98 2 -74 -12 -100 -56 -100 -35 0 -80 35 -80 62 0 11 -7 32 -15 46 -17 32 -44 225 -57 412 -5 74 -14 140 -20 147 -17 21 -83 -52 -93 -102 -14 -81 -17 -247 -4 -279 8 -17 14 -55 14 -86 1 -30 6 -68 12 -85 49 -133 56 -204 23 -245 -20 -25 -20 -25 -56 15 -45 50 -73 110 -74 153 0 18 -4 42 -10 52 -8 14 -16 76 -20 153 0 4 -9 7 -20 7 -37 0 -42 -33 -38 -219 4 -162 7 -181 31 -236 14 -33 33 -82 43 -108 9 -27 30 -66 46 -88 15 -21 28 -49 28 -61 0 -13 11 -41 25 -63 13 -22 36 -65 51 -95 15 -30 40 -73 56 -94 15 -21 28 -44 28 -49 0 -17 91 -167 101 -167 14 0 68 -63 75 -87 3 -12 19 -46 34 -75 80 -148 130 -267 130 -307 0 -41 25 -100 45 -107 9 -4 15 -19 15 -38 1 -17 7 -42 15 -56 11 -19 14 -67 15 -201 0 -166 1 -178 23 -209 23 -34 96 -80 128 -80 27 0 40 32 33 83 -7 48 12 125 45 190 57 111 245 247 416 300 75 24 204 47 258 47 69 0 222 -46 288 -86 61 -37 78 -41 97 -22 28 28 0 118 -37 118 -5 0 -13 15 -16 33 -7 31 -46 86 -132 188 -24 27 -43 55 -43 61 0 6 -19 41 -42 77 -40 62 -43 70 -40 130 2 74 20 139 56 212 14 28 26 55 26 61 0 5 18 45 39 88 29 57 42 97 48 151 11 103 -4 444 -23 492 -7 20 -14 54 -14 75 0 20 -4 43 -9 51 -13 21 -41 5 -41 -23 0 -22 -48 -144 -87 -221 -43 -84 -231 -245 -285 -245 -43 0 -99 33 -136 79 -31 38 -36 41 -85 42 -89 1 -121 17 -166 82 -23 32 -43 69 -46 82 -3 14 -7 36 -10 50 -3 15 -22 36 -46 52 -73 48 -112 160 -87 255 10 41 9 50 -4 65 -9 10 -24 41 -33 68 -10 28 -23 57 -31 66 -10 11 -14 44 -14 116 0 88 2 102 20 118 14 13 20 30 19 54 -1 35 27 100 72 162 35 49 19 79 -42 79 -28 0 -51 -11 -97 -45 z  m 256 -1254 c 12 -27 22 -59 22 -72 0 -13 9 -38 19 -55 10 -17 21 -50 25 -75 12 -80 28 -204 30 -230 2 -15 8 -41 15 -57 22 -53 1 -179 -38 -226 -25 -30 -55 -18 -121 48 -36 35 -79 81 -97 102 -25 31 -34 37 -44 26 -10 -9 -10 -19 -1 -45 15 -43 26 -176 18 -219 -8 -46 -43 -66 -83 -49 -41 18 -73 48 -127 124 -26 37 -57 72 -67 78 -10 5 -19 16 -19 23 0 8 -7 19 -15 26 -8 6 -31 45 -51 86 -20 41 -41 74 -47 74 -17 0 -57 42 -57 60 0 32 57 66 92 54 10 -3 36 -39 58 -84 22 -43 44 -81 49 -84 15 -9 91 -151 91 -169 0 -9 22 -39 48 -68 36 -39 53 -51 66 -46 16 6 17 14 11 54 -4 26 -13 60 -21 75 -8 15 -14 40 -14 55 -1 46 -27 144 -44 162 -9 10 -16 23 -16 30 0 6 -7 25 -15 41 -8 16 -16 59 -17 96 -1 59 1 69 21 85 29 24 60 24 67 2 3 -10 26 -58 50 -108 114 -231 197 -355 239 -355 42 0 49 74 10 116 -19 20 -22 31 -15 45 14 26 12 66 -4 92 -8 12 -22 58 -31 102 -9 44 -23 90 -31 103 -19 29 -56 140 -56 170 -1 29 29 62 56 62 16 0 27 -13 44 -49 z "></path><path id="pCoFTRXIY" d="M 3159 14165 c -24 -13 -53 -62 -89 -155 -21 -54 -25 -226 -6 -255 23 -35 51 -40 91 -15 34 21 40 33 61 125 3 17 14 44 24 60 21 36 32 166 18 207 -16 46 -52 58 -99 33 z "></path><path id="p5VdxAX6s" d="M 3408 13981 c -17 -14 -28 -38 -37 -78 -17 -79 -54 -155 -99 -206 -21 -23 -45 -54 -55 -69 -9 -14 -32 -31 -52 -38 -43 -14 -55 -35 -55 -95 0 -91 39 -109 121 -56 51 32 94 82 160 186 49 75 75 135 117 264 14 42 -6 87 -44 101 -32 12 -27 13 -56 -9 z "></path><path id="pq22kik00" d="M 3597 13732 c -10 -10 -17 -22 -17 -26 0 -4 -11 -22 -25 -40 -14 -18 -25 -37 -25 -43 0 -13 -85 -119 -186 -231 -78 -86 -84 -96 -84 -136 0 -52 25 -88 61 -88 61 0 174 112 221 219 11 27 30 62 43 78 12 17 26 41 30 55 4 14 19 47 32 74 28 55 27 104 -3 137 -21 24 -27 24 -47 1 z "></path><path id="p13sIx347x" d="M 3750 13498 c -17 -35 -34 -70 -39 -78 -5 -8 -18 -35 -30 -60 -29 -61 -58 -104 -107 -159 -69 -77 -80 -114 -44 -146 13 -12 27 -15 45 -11 36 9 103 72 127 120 11 23 28 50 37 61 22 25 111 233 111 258 0 25 -38 77 -55 77 -8 0 -28 -28 -45 -62 z "></path><path id="p16ZvQit3x" d="M 4153 13234 c -3 -9 -1 -31 5 -48 7 -18 12 -44 12 -59 0 -34 31 -62 94 -86 65 -24 86 -15 86 37 0 32 -8 45 -48 85 -42 42 -112 87 -134 87 -5 0 -11 -7 -15 -16 z "></path><path id="pBL5WzBne" d="M 2232 12445 c -18 -35 -32 -68 -32 -71 0 -4 -11 -21 -24 -38 -31 -42 -69 -130 -64 -153 2 -10 26 -29 53 -43 186 -95 264 -140 314 -183 54 -46 77 -53 101 -32 22 20 26 54 8 88 -6 12 -14 29 -19 37 -4 8 -12 14 -18 13 -5 -2 -34 46 -63 105 -29 59 -65 126 -80 148 -15 23 -28 45 -28 49 0 3 -19 38 -41 76 -26 43 -48 69 -59 69 -11 0 -28 -22 -48 -65 z "></path><path id="pMlAl0SWp" d="M 1873 11989 c -8 -22 -19 -39 -23 -39 -4 0 -22 -28 -40 -62 -18 -35 -43 -76 -54 -93 -12 -16 -28 -46 -36 -65 -7 -19 -21 -44 -31 -55 -10 -11 -28 -42 -39 -68 -16 -37 -30 -52 -58 -64 -79 -33 -87 -39 -122 -105 -19 -37 -55 -102 -79 -145 -24 -43 -61 -112 -81 -153 -21 -42 -45 -82 -54 -89 -9 -7 -21 -31 -26 -52 -6 -21 -22 -51 -35 -68 -14 -16 -32 -46 -41 -66 -8 -21 -27 -56 -42 -79 -15 -22 -40 -68 -57 -101 -18 -33 -46 -86 -64 -118 -42 -73 -38 -107 13 -107 18 0 62 -9 96 -20 34 -11 67 -20 73 -20 16 0 202 -96 259 -134 76 -50 166 -121 216 -169 41 -40 44 -41 69 -27 28 16 42 37 92 135 72 140 132 250 146 265 8 9 15 22 15 28 0 14 35 78 61 111 11 13 19 31 19 41 0 9 12 35 26 56 27 39 84 144 134 244 15 31 40 70 54 87 14 17 26 38 26 47 0 9 -17 43 -37 77 -31 49 -57 74 -138 132 -55 39 -143 92 -195 119 -88 45 -130 81 -130 114 0 6 11 23 25 38 39 43 82 36 194 -31 151 -90 202 -123 258 -170 28 -23 57 -43 65 -43 15 0 43 49 52 93 4 15 15 36 25 46 10 10 34 47 53 82 19 35 43 78 53 94 18 31 18 31 -26 91 -24 33 -67 78 -96 100 -30 21 -66 48 -81 60 -15 11 -61 36 -102 54 -41 18 -88 38 -105 46 -16 7 -72 15 -123 17 -93 5 -93 5 -109 -34 z "></path><path id="pRhY6Akyq" d="M 3615 11599 c -33 -8 -73 -21 -88 -27 -16 -7 -30 -12 -32 -12 -6 0 -94 -60 -147 -100 -53 -40 -108 -118 -108 -153 0 -13 -5 -28 -11 -34 -8 -8 -9 -38 -4 -95 6 -75 10 -87 40 -123 31 -36 35 -38 58 -26 13 7 37 24 52 37 15 13 32 24 37 24 5 0 24 10 41 23 55 39 218 122 327 167 30 12 70 28 88 36 18 8 40 14 50 14 9 1 42 9 72 20 30 11 72 19 92 20 31 0 68 20 68 36 0 3 -8 17 -18 32 -10 15 -23 36 -28 47 -18 34 -107 94 -164 111 -75 22 -247 24 -325 3 z "></path><path id="pHrhNi25k" d="M 4076 11203 c -17 -9 -48 -16 -70 -16 -23 0 -57 -8 -76 -18 -19 -11 -42 -19 -52 -19 -9 0 -20 -4 -23 -10 -3 -5 -16 -10 -28 -10 -13 0 -31 -6 -42 -14 -11 -7 -31 -17 -44 -21 -42 -13 -203 -113 -326 -203 -118 -86 -120 -88 -123 -130 -5 -66 14 -63 124 23 54 42 116 86 139 97 22 11 53 31 69 45 31 26 259 138 303 149 14 4 38 13 52 20 14 8 34 14 44 14 10 0 34 8 55 19 27 13 61 18 131 19 110 2 131 7 131 32 0 15 -11 19 -62 24 -158 15 -173 15 -202 -1 z "></path><path id="p5ymntWws" d="M 4255 11030 c -200 -40 -367 -103 -525 -201 -89 -55 -135 -90 -251 -188 -80 -68 -99 -90 -99 -112 0 -27 34 -79 51 -79 5 0 51 35 102 78 121 102 183 147 294 214 93 56 296 148 327 148 10 0 27 5 39 12 27 14 148 37 247 46 85 8 100 25 59 68 -21 22 -29 24 -113 23 -50 -1 -109 -5 -131 -9 z "></path><path id="p1FMFPbAoh" d="M 4320 10788 c -23 -10 -52 -15 -65 -12 -14 4 -33 -1 -47 -10 -12 -9 -32 -16 -44 -16 -12 0 -35 -6 -51 -14 -15 -8 -66 -32 -113 -55 -143 -68 -247 -139 -405 -276 -55 -47 -102 -91 -104 -97 -5 -14 40 -98 52 -98 5 0 36 26 70 58 77 73 192 166 262 212 29 19 61 42 71 51 48 42 286 149 374 169 19 4 47 12 62 18 15 6 78 17 139 23 77 9 113 17 116 26 11 28 -16 35 -145 37 -105 1 -138 -2 -172 -16 z "></path><path id="p1E1qNmlgK" d="M 4500 10588 c -14 -5 -47 -13 -75 -18 -136 -22 -366 -132 -519 -250 -32 -25 -69 -52 -81 -60 -13 -9 -67 -59 -119 -111 -99 -99 -111 -122 -86 -170 15 -28 30 -24 75 20 157 152 170 164 339 284 95 68 269 154 376 186 41 12 86 26 100 31 30 10 210 29 260 27 41 -2 52 23 24 54 -15 17 -31 19 -143 18 -69 0 -137 -5 -151 -11 z "></path><path id="pbo3nyKTr" d="M 4605 10355 c -16 -8 -43 -14 -58 -15 -26 0 -127 -30 -165 -49 -284 -140 -367 -197 -562 -388 -115 -112 -115 -112 -95 -150 32 -61 51 -56 154 44 156 152 202 192 277 238 17 11 56 36 86 56 79 52 284 149 317 149 10 0 29 9 42 19 18 14 41 19 87 19 44 0 69 5 81 16 13 12 39 16 104 16 66 0 87 3 87 13 0 21 -37 50 -54 44 -19 -8 -179 -9 -231 -3 -24 3 -52 0 -70 -9 z "></path><path id="p19dby8xsI" d="M 4679 8638 c -27 -52 -86 -111 -144 -146 -69 -41 -138 -100 -155 -131 -14 -28 -3 -110 26 -188 13 -34 29 -104 35 -155 10 -84 29 -153 72 -273 14 -38 18 -40 59 -43 31 -1 54 4 83 23 91 56 207 107 233 102 46 -9 52 0 52 79 0 92 -26 222 -49 249 -33 37 -64 100 -77 155 -7 30 -18 75 -24 100 -23 91 -30 131 -30 174 0 67 -55 103 -81 54 z "></path><path id="phzd6keAs" d="M 5014 6783 c -9 -47 -30 -100 -44 -108 -6 -3 -19 -23 -29 -43 -11 -20 -61 -77 -112 -127 -51 -49 -104 -101 -118 -115 -41 -40 -78 -85 -105 -128 -14 -22 -38 -49 -54 -61 -52 -37 -59 -75 -37 -202 4 -22 28 -62 63 -106 95 -118 149 -155 224 -155 70 1 124 43 177 137 16 28 43 63 60 78 17 14 42 47 57 73 29 51 60 83 82 84 26 0 71 -34 83 -62 18 -45 3 -126 -32 -170 -28 -36 -37 -80 -21 -104 28 -42 193 -78 306 -67 78 8 140 50 178 120 23 43 30 69 34 145 9 136 -28 283 -81 323 -15 11 -55 46 -89 78 -35 31 -67 57 -72 57 -5 0 -48 37 -96 83 -48 45 -102 95 -120 111 -18 15 -74 66 -124 112 -51 46 -99 84 -107 84 -11 0 -19 -13 -23 -37 z "></path></g></g></svg>