<svg xmlns="http://www.w3.org/2000/svg" id="a" data-name="Layer 1" viewBox="0 0 200 41.6" width="200px" height="43px">
  <title>Discover Tasmania</title> 
  <path d="M15.58,.29H0V3.75H5.84V20.79h3.9V3.75h5.84V.29Zm21.69,20.5h4.16L34.09,.29h-4.69l-7.38,20.5h4.16l1.68-4.95h7.73l1.68,4.95Zm-8.35-8.14l2.69-7.91h.24l2.69,7.91h-5.61Zm36.18,2.52c0-4.28-3.78-5.65-5.73-6.24l-1.03-.32c-1.74-.53-3.54-1.11-3.54-2.87,0-1.49,1.27-2.46,3.1-2.46,1.98,0,3.01,1.14,3.19,2.75h3.84c-.12-3.48-2.8-6.03-7.05-6.03-3.98,0-6.99,2.26-6.99,5.92,0,3.4,2.66,4.95,5.19,5.71l1.18,.35c1.89,.56,3.93,1.23,3.93,3.31,0,1.79-1.48,2.52-3.25,2.52-2.36,0-3.69-1.23-3.87-3.28h-3.84c.15,3.92,2.77,6.56,7.7,6.56,3.81,0,7.17-1.9,7.17-5.92h0ZM98.54,.29h-4.75l-6.26,14.06h-.24L81.01,.29h-4.78V20.79h3.81V7.17h.24l5.16,11.27h3.93l5.13-11.27h.24v13.62h3.81V.29Zm25.11,20.5h4.16L120.47,.29h-4.69l-7.38,20.5h4.16l1.68-4.95h7.73l1.68,4.95Zm-8.35-8.14l2.69-7.91h.24l2.69,7.91h-5.61ZM151.22,.29V14.08h-.24L141.69,.29h-3.98V20.79h3.81V7.09h.24l9.3,13.7h3.98V.29h-3.81Zm15.61,20.5h3.9V.29h-3.9V20.79Zm29.01,0h4.16L192.65,.29h-4.69l-7.38,20.5h4.16l1.68-4.95h7.73l1.68,4.95Zm-8.35-8.14l2.69-7.91h.24l2.69,7.91h-5.61ZM53.89,41.6c-2.33,0-3.74-1.63-3.74-3.85s1.5-3.91,3.74-3.91c1.72,0,3.09,.91,3.35,2.58h-1.54c-.24-.78-.88-1.26-1.8-1.26-1.36,0-2.27,1.13-2.27,2.6s.98,2.53,2.27,2.53c.99,0,1.68-.48,1.92-1.22h1.54c-.25,1.62-1.71,2.53-3.47,2.53m12.8-3.88c0-1.47-1.03-2.57-2.42-2.57s-2.42,1.1-2.42,2.57,1.03,2.57,2.43,2.57,2.41-1.1,2.41-2.57m-6.31,0c0-2.21,1.64-3.88,3.89-3.88s3.89,1.67,3.89,3.88-1.63,3.88-3.89,3.88-3.89-1.66-3.89-3.88m19.52,3.77h-1.4v-5.01h-.09l-1.89,4.15h-1.45l-1.9-4.15h-.09v5.01h-1.4v-7.55h1.76l2.31,5.17h.09l2.3-5.17h1.75v7.55Zm9.05-1.24v1.24h-5.2v-7.55h5.1v1.24h-3.69v1.88h3.18v1.21h-3.18v1.98h3.8Zm13.43-2.58c0-1.46-.7-2.46-2.29-2.46h-1.17v5h1.17c1.6,0,2.29-1.08,2.29-2.54m1.47,.04c0,2.31-1.38,3.77-3.7,3.77h-2.66v-7.55h2.66c2.32,0,3.7,1.43,3.7,3.77m9.52,0c0-1.47-1.03-2.57-2.42-2.57s-2.42,1.1-2.42,2.57,1.03,2.57,2.43,2.57,2.41-1.1,2.41-2.57m-6.31,0c0-2.21,1.64-3.88,3.89-3.88s3.89,1.67,3.89,3.88-1.63,3.88-3.89,3.88-3.89-1.66-3.89-3.88m20.13-3.77l-1.65,7.55h-1.59l-1.5-5.18h-.09l-1.48,5.18h-1.59l-1.66-7.55h1.39l1.12,5.45h.09l1.42-4.92h1.52l1.4,4.92h.09l1.14-5.45h1.38Zm9.62,0v7.55h-1.47l-3.42-5.04h-.09v5.04h-1.4v-7.55h1.47l3.42,5.08h.09v-5.08h1.4Zm10.3,1.3v2.01h3.19v1.24h-3.19v3h-1.43v-7.55h5.12v1.3h-3.68Zm12.89,2.47c0-1.47-1.03-2.57-2.42-2.57s-2.42,1.1-2.42,2.57,1.03,2.57,2.43,2.57,2.41-1.1,2.41-2.57m-6.31,0c0-2.21,1.64-3.88,3.89-3.88s3.89,1.67,3.89,3.88-1.63,3.88-3.89,3.88-3.89-1.66-3.89-3.88m12.7-.38h1.44c.74,0,1.18-.46,1.18-1.1,0-.67-.45-1.09-1.18-1.09h-1.44v2.19Zm2.82,4.15l-1.59-2.94h-1.24v2.94h-1.4v-7.55h3.01c1.52,0,2.46,.89,2.46,2.22,0,1.02-.56,1.78-1.47,2.12l1.75,3.2h-1.52Zm14.06-3l-.99-2.91h-.09l-.99,2.91h2.06Zm.39,1.18h-2.85l-.62,1.82h-1.53l2.72-7.55h1.73l2.71,7.55h-1.53l-.62-1.82Zm5.29,1.82h1.43v-7.55h-1.43v7.55Zm6.68-4.15h1.44c.74,0,1.18-.46,1.18-1.1,0-.67-.45-1.09-1.18-1.09h-1.44v2.19Zm2.82,4.15l-1.59-2.94h-1.24v2.94h-1.4v-7.55h3.01c1.52,0,2.46,.89,2.46,2.22,0,1.02-.56,1.78-1.47,2.12l1.75,3.2h-1.52Z" style="fill: #000000; fill-rule: evenodd;"/>
</svg>