<svg version="1.2" xmlns="http://www.w3.org/2000/svg" viewBox="0 0 3576 519" width="3576" height="519">
	<title>vndn_logo</title>
	<style>
		.s0 { fill: #000000 } 
	</style>
	<path id="Vandemonian" fill-rule="evenodd" class="s0" d="m245.8 307.7q-7.8 59.5-7.8 92.1 0 32.7 20.2 32.7 20.3 0 47.7-30 28.1-30.1 52.3-82.4 24.2-52.3 29.4-105.8 0-54.3-55.5-123.5 13-28.1 33.9-50.3 20.9-22.9 35.3-31.4l14.4-9.2q24.2 0 41.2 35.3 17.6 34.7 17.6 77.1 0 73.2-42.5 168.6-42.4 95.4-105.8 164.7-63.4 69.2-117 69.2-34.6 0-54.2-24.8-19-25.5-19-60.8 0-35.2 8.5-115.6-60.7-5.9-100.6-41.2-39.2-35.9-39.2-87.5 0-52.3 48.3-96.7 49.1-45.1 111.8-45.1 96 0 96 119.5 0 30.1-4.5 61.5l-4.6 38.5q32.7-7.8 52.3-18.9l7.1-3.9q13.8 13.7 14.4 41.8-40.5 18.9-79.7 26.1zm-86.9-144.4q0-34-7.2-48.4-7.2-15-28.7-15-20.9 0-49.7 24.8-28.1 24.2-28.1 60.8 0 36 30.1 60.8 30.7 24.2 73.8 24.2 9.8-73.2 9.8-107.2zm500.5 73.2q1.3-1.3 7.2-17 30.7 0 82.3 18.3-16.3 54.2-26.1 113.7-9.8 58.8-9.8 84.3 0 24.8 5.2 24.8 4 0 28.8-12.4l7.8-3.9 11.8 22.8q-5.9 5.3-15.7 13.1-9.1 7.9-35.3 21.6-26.1 13-47 13-40.5 0-47.1-36.6-41.8 36.6-75.8 36.6-33.3 0-56.8-26.1-22.9-26.1-22.9-82.3 0-87.6 35.9-137.9 36-51 87-51 36.5 0 70.5 19zm-74.5 222.8q15.7 0 35.3-12.4 4.6-92.1 30.7-182.3-19.6-8.5-33.3-8.5-23.5 0-40.5 46.4-16.3 45.7-16.3 101.3 0 55.5 24.1 55.5zm211.1 49.7h-12.4q0-30.8 18.3-117.7 18.9-86.9 18.9-98.6 0-21.6-18.3-45.8l-5.9-7.8 0.7-8.5q35.3-9.8 113-9.8 8.5 11.1 9.2 40.5 56.8-43.8 96-43.8 23.6 0 37.3 16.4 14.4 16.3 14.4 41.1 0 24.2-15.1 84.3-15 60.1-15 81.1 0 20.2 5.2 20.2 3.9 0 27.5-12.4l7.8-3.9 11.8 22.8q-5.9 5.3-15.7 13.1-9.8 7.9-36.6 21.6-26.1 13-47 13-47.7 0-47.7-54.2 0-22.9 14.3-84.3 15.1-61.4 15.1-79 0-17.7-11.2-17.7-18.9 0-46.3 16.3-2 11.2-13.1 58.9-22.9 102.5-22.9 145-22.9 9.2-82.3 9.2zm611.6-64.7l12.4 22.8q-55.5 47.7-98 47.7-41.8 0-48.4-41.8-19.6 19.6-43.7 30.7-24.2 11.1-42.5 11.1-31.4 0-53.6-27.4-22.2-27.4-22.2-84.9 0-86.3 36.6-135.3 36.6-49.7 82.3-49.7 46.4 0 77.8 20.9 20.2-105.8 20.2-166.6l-3.2-27.4q49-17 96-17 5.2 11.1 5.2 25.5 0 47.7-28.7 194-28.8 145.8-28.8 198 0 15.7 7.2 15.7 3.9 0 24.9-12.4zm-145.1-188.2q-22.9 0-39.9 45.1-16.3 45.1-16.3 89.5 0 43.8 5.9 56.2 6.5 12.4 18.9 12.4 21.6 0 42.5-17.6 2-26.2 29.4-173.8-22.2-11.8-40.5-11.8zm173.2 137.9q0-81.7 49-128.7 49.6-47.7 112.3-47.7 38.6 0 63.4 18.9 24.9 19 24.9 51 0 31.3-16.4 52.9-15.7 21.6-38.5 33.3-46.4 22.9-85 28.8l-15.7 1.9q4.6 61.5 50.4 61.5 15.6 0 33.3-7.9 17.6-7.8 27.4-15.7l9.8-7.8 15.7 20.9q-5.2 7.2-20.9 18.9-15.7 11.8-29.4 19.7-37.9 20.9-83 20.9-45.1 0-71.2-32.1-26.1-32-26.1-88.8zm93.4-21.6q33.3-5.9 52.9-28.1 19.6-22.2 19.6-57.5 0-35.3-20.9-35.3-24.8 0-38.5 42.5-13.1 41.8-13.1 78.4zm187.5 136.6h-12.4q0-30.7 18.3-117.6 19-86.9 19-98.7 0-21.6-18.3-45.7l-5.9-7.9 0.6-8.5q35.3-9.8 113.1-9.8 9.1 12.4 9.1 40.5 58.8-43.7 93.5-43.7 43.7 0 51.6 45 17.6-14.3 45.7-29.4 28.8-15.6 51-15.6 22.9 0 37.9 15 15 14.4 15 40.5 0 26.1-14.4 86.2-14.3 60.2-14.3 81.1 0 20.2 5.8 20.2 4 0 26.8-12.4l7.2-3.9 11.8 22.9q-17 17-46.4 32.6-28.8 15.1-51 15.1-49 0-49-55.6 0-20.2 13.7-81 14.4-61.4 14.4-79.7 0-19-11.1-19-18.9 0-43.1 14.4-1.3 13.1-18.3 88.9-16.4 75.8-16.4 117.6-18.9 8.5-88.8 8.5-1.3-7.2-1.3-34.7 0-27.4 15-93.4 15.7-66 15.7-83.6 0-17.7-12.4-17.7-19.6 0-43.2 15.7-1.3 5.9-13 57.5-23.5 103.3-23.5 147-22.9 9.2-82.4 9.2zm553.5 5.9q-45.1 0-70.6-31.4-25.5-32-25.5-88.9 0-72.5 38.6-124.8 39.2-52.2 107.8-52.2l23.5 1.3q11.1-5.9 24.8-5.9 51.7 0 51.7 97.3 26.7-1.3 54.2-7.1l2.9-0.8q1-6.9 1-9.7 0-21.6-18.3-45.7l-5.9-7.9 0.7-8.5q35.3-9.8 113-9.8 8.5 11.1 9.2 40.5 56.8-43.7 96-43.7 23.6 0 37.3 16.3 14.4 16.3 14.4 41.2 0 24.1-15.1 84.2-15 60.2-15 81.1 0 20.2 5.2 20.2 3.9 0 27.5-12.4l7.8-3.9 11.8 22.9q-5.9 5.2-15.7 13-9.8 7.9-36.6 21.6-26.1 13.1-47 13.1-47.7 0-47.7-54.3 0-22.8 14.3-84.3 15.1-61.4 15.1-79 0-17.7-11.2-17.7-18.9 0-46.3 16.4-2 11.1-13.1 58.8-22.9 102.6-22.9 145-22.9 9.2-82.3 9.2h-12.4q0-30.7 18.3-117.6 7.8-36.1 12.4-59.2-17.4 5.5-41.2 10.2l-13.1 2.6q-12.4 68.6-50.3 119.5-37.9 50.4-97.3 50.4zm35.3-56.2q27.4 0 49-35.3 22.2-35.3 30.7-74.5-69.9 0-69.9-52.3 0-20.9 8.5-39.2l3.2-6.5q-2.6-1.3-6.5-1.3-3.9 0-5.9 1.3-16.3 10.4-30.7 49-14.4 38.5-14.4 88.2 0 70.6 36 70.6zm597.8-200.6q0 27.4-17.6 94.7-17.6 66.7-17.6 87.6 0 20.2 5.8 20.2 4 0 30.1-12.4l7.8-3.9 11.1 22.9q-5.8 5.2-15.6 13-9.8 7.9-36.6 21.6-26.8 13.1-49.7 13.1-22.9 0-35.9-13.8-13.1-14.3-13.1-37.9 0-24.1 16.3-84.9 16.4-61.4 16.4-79.7 0-27.5-17-51.6l-5.9-7.9 0.7-8.5q34.6-9.8 112.3-9.8 8.5 9.8 8.5 37.3zm-74.5-108.5q-13-13.1-13-34.6 0-21.6 17.6-37.9 18.3-16.4 41.8-16.4 23.6 0 36.6 13.1 13.1 13.1 13.1 34.6 0 20.9-18.9 37.3-18.3 16.3-41.2 16.3-22.9 0-36-12.4zm311.7 86.9q1.3-1.3 7.2-17 30.7 0 82.3 18.3-16.3 54.2-26.1 113.7-9.8 58.8-9.8 84.3 0 24.8 5.2 24.8 4 0 28.8-12.4l7.8-3.9 11.8 22.9q-5.9 5.2-15.7 13-9.1 7.9-35.3 21.6-26.1 13.1-47 13.1-40.5 0-47.1-36.6-41.8 36.6-75.8 36.6-33.3 0-56.8-26.2-22.9-26.1-22.9-82.3 0-87.6 36-137.9 35.9-50.9 86.9-50.9 36.6 0 70.5 18.9zm-74.5 222.8q15.7 0 35.3-12.4 4.6-92.1 30.7-182.3-19.6-8.5-33.3-8.5-23.5 0-40.5 46.4-16.3 45.7-16.3 101.3 0 55.5 24.1 55.5zm211.1 49.7h-12.4q0-30.7 18.3-117.6 18.9-86.9 18.9-98.7 0-21.6-18.3-45.7l-5.9-7.9 0.7-8.5q35.3-9.8 113-9.8 8.5 11.1 9.2 40.5 56.8-43.7 96-43.7 23.6 0 37.3 16.3 14.4 16.3 14.4 41.2 0 24.1-15.1 84.2-15 60.2-15 81.1 0 20.2 5.2 20.2 4 0 27.5-12.4l7.8-3.9 11.8 22.9q-5.9 5.2-15.7 13-9.8 7.9-36.6 21.6-26.1 13.1-47 13.1-47.7 0-47.7-54.3 0-22.8 14.3-84.3 15.1-61.4 15.1-79 0-17.7-11.1-17.7-19 0-46.4 16.4-2 11.1-13.1 58.8-22.9 102.6-22.9 145-22.8 9.2-82.3 9.2z"/>
</svg>