<svg xmlns="http://www.w3.org/2000/svg" width="2080" height="299" version="1.2"><path fill-rule="evenodd" d="M108.7 294.7H44.2V52H.5V4.4h151.6V52h-43.4zm102.5 0h-60.6L205.5 4.4h73.1l54.1 290.3h-59.1l-9.7-61.3h-42.7zm31.2-212.8L227 195.1h30.8zm193.9 217.2q-27.2 0-45.5-9.7t-27.6-29.7q-9.3-20.5-10.4-52.7l54.8-8.3q.4 18.7 3.3 30.2 3.2 11.4 8.6 16.4 5.7 5.1 13.6 5.1 10 0 12.9-6.9 3.2-6.8 3.2-14.3 0-17.9-8.6-30.1-8.6-12.5-23.3-25.1l-25.1-21.8q-16.5-14-27.9-31.6-11.1-17.9-11.1-44.1 0-36.9 21.8-56.2Q396.9.6 434.5.6q23.3 0 37.3 7.8 14.3 7.9 21.5 20.8 7.5 12.6 10 26.9 2.9 14 3.2 26.9l-55.1 6.8q-.4-12.9-1.8-22.2-1.1-9.7-5.1-14.7-3.9-5.4-12.1-5.4-9 0-13.3 7.5-3.9 7.6-3.9 15.1 0 16.1 7.5 26.5 7.9 10 20.4 21.2l24 21.1q19 16.1 31.9 36.6 13.3 20.4 13.3 50.5 0 20.4-9.3 37.3-9.4 16.4-26.6 26.1-16.8 9.7-40.1 9.7zm278.8-4.3h-56.6L623.4 4.5h54.5l17.2 169.2L716.9 4.9h42.7l22.9 167.7L800.1 4.5h53.7l-34.7 290.3h-55.9l-24.8-175.3zm234.4 0h-64.1V4.6h64.1zm98.2 0h-54.8V4.5h45.1l59.5 139.7V4.5h53.1v290.3h-43.4l-59.5-150.6zm277.4 0h-131.2V4.5h130.5v43.8h-66.3v72h50.5v44.4h-50.5v86.8h67zm184.9 0h-64.1V4.5h125.4v43.3H1510V121h53.4v44.7H1510zm222.6 0h-131.2V4.6h130.5v43.7h-66.3v72h50.5v44.5h-50.5v86.7h67zm106.1 4.3q-27.3 0-45.6-9.7-18.2-9.7-27.6-29.7-9.3-20.5-10.3-52.7l54.8-8.3q.3 18.7 3.2 30.1 3.2 11.5 8.6 16.5 5.8 5 13.6 5 10.1 0 12.9-6.8 3.3-6.8 3.3-14.3 0-17.9-8.6-30.1-8.6-12.5-23.3-25.1l-25.1-21.9q-16.5-13.9-28-31.5-11.1-17.9-11.1-44.1 0-36.9 21.9-56.2Q1799.2.5 1836.9.5q23.3 0 37.2 7.9 14.4 7.9 21.5 20.8 7.6 12.6 10.1 26.9 2.8 14 3.2 26.9l-55.2 6.8q-.3-12.9-1.8-22.2-1.1-9.7-5-14.7-3.9-5.4-12.2-5.4-8.9 0-13.2 7.5-4 7.6-4 15.1 0 16.1 7.5 26.5 7.9 10 20.5 21.1l24 21.2q19 16.1 31.9 36.5 13.2 20.5 13.2 50.6 0 20.4-9.3 37.2-9.3 16.5-26.5 26.2-16.8 9.7-40.1 9.7zm197.8-4.3H1972V52.2h-43.7V4.5h151.6v47.7h-43.4z" style="fill:#000"/></svg>