<svg xmlns="http://www.w3.org/2000/svg" width="683.97" height="1003.97" viewBox="0 0 683.97 1003.97">
  <defs>
    <style>
      .cls-1 {
        stroke: #000;
        stroke-width: 1px;
        fill-rule: evenodd;
      }
    </style>
  </defs>
  <path class="cls-1" d="M1345.71,1274.53q37.05-4.26,74.1-8.51c-1.47,34.74,10.04,64.96,44.95,55.89,22.58-32.08-6.34-61.22-26.72-76.54-38.65-29.05-113.58-67.39-88.69-145.8,14.27-44.94,89.41-75.19,150.64-51.03,33.26,13.13,48.76,43.24,51.03,87.48l-1.22,1.22-74.1,7.29c0.66-20.72-2.74-33.8-10.94-44.96-30.58-8.7-46.59,22.92-27.94,48.6,32.34,44.52,155.57,83.46,116.63,178.6-18.08,44.15-89.42,69.5-150.64,46.17C1366.11,1358.96,1345.34,1325.5,1345.71,1274.53ZM878,1047.33h202.88V1102h-58.32v273.37H936.312V1102H878v-54.67Zm272.12,0h98.4q35.835,164,71.68,328.04h-80.18q-6.075-34.62-12.15-69.25h-55.88q-6.69,34.62-13.36,69.25h-81.4Q1113.68,1211.36,1150.12,1047.33Zm30.37,215.05h38.88l-19.44-121.5h-1.21Q1189.6,1201.63,1180.49,1262.38ZM971.542,1419.11h42.518q10.935,77.745,21.87,155.52,7.89-77.76,15.79-155.52h53.45v1.22q-17,139.7-34.01,279.44h-54.67q-11.535-80.79-23.081-161.59h-1.215q-10.324,80.79-20.652,161.59H915.66q-17.007-140.31-34.016-280.66,27.332,0.615,54.668,1.22,7.9,77.745,15.793,155.51Q961.822,1497.48,971.542,1419.11Zm160.358,0h63.17v280.66H1131.9V1419.11Zm104.47,0h44.95l53.46,128.79h1.21V1419.11h52.24v280.66h-42.52q-27.33-70.455-54.67-140.94h-1.21v140.94h-53.46V1419.11Zm193.16,0h126.34v42.52h-64.38v68.04h48.59v44.96h-48.59v81.4h65.6v43.74H1429.53V1419.11Zm-49.81,404.59q-29.145,3.03-58.31,6.07c-1.58-16.3-3.14-29.72-9.72-40.09-4.04-.41-8.1-0.81-12.14-1.22-22.2,4.46-16.02,36.84-6.08,49.82,28.92,37.73,121.55,75.68,87.47,157.94-31.45,75.93-164.29,59.41-162.79-49.81l58.31-7.29c-0.7,21.81,3.61,44.15,19.44,49.81h14.58c18.8-15.76,2.04-47.58-8.5-59.53-30.36-34.41-104.71-60.8-81.4-138.51C1243.86,1713.29,1380.94,1717.25,1379.72,1823.7Zm-484.712-80.19H1028.64v44.95H964.253v71.69h55.887v46.17H964.253v130H895.008V1743.51Zm161.572,0h138.49v44.95h-70.46v71.69h53.45v44.95h-53.45v86.26h70.46v44.96H1056.58V1743.51Zm342.58,0h160.36v48.6h-46.16v244.21h-68.03V1792.11h-46.17v-48.6Z" transform="translate(-877.5 -1039.5)"/>
</svg>
